<svg width="505" height="372" viewBox="0 0 505 372" fill="none" xmlns="http://www.w3.org/2000/svg">
<path d="M0.758523 10V1.27273H6.6392V2.79403H2.60369V4.87358H6.33665V6.39489H2.60369V8.47869H6.65625V10H0.758523ZM9.58913 3.45455L10.7908 5.7429L12.0224 3.45455H13.8846L11.9883 6.72727L13.9357 10H12.082L10.7908 7.73722L9.52095 10H7.64595L9.58913 6.72727L7.71413 3.45455H9.58913ZM19.0536 12.4545V8.9517H18.9982C18.913 9.13352 18.7923 9.31392 18.636 9.4929C18.4826 9.66903 18.2823 9.81534 18.0352 9.93182C17.7908 10.0483 17.4925 10.1065 17.1403 10.1065C16.6431 10.1065 16.1928 9.97869 15.7894 9.72301C15.3888 9.46449 15.0707 9.08523 14.8349 8.58523C14.6019 8.08239 14.4854 7.46591 14.4854 6.7358C14.4854 5.9858 14.6062 5.36222 14.8477 4.86506C15.0891 4.36506 15.4102 3.99148 15.8107 3.74432C16.2141 3.49432 16.6559 3.36932 17.136 3.36932C17.5025 3.36932 17.8079 3.43182 18.0522 3.55682C18.2994 3.67898 18.4982 3.83239 18.6488 4.01705C18.8022 4.19886 18.9187 4.37784 18.9982 4.55398H19.0749V3.45455H20.8647V12.4545H19.0536ZM17.7156 8.66193C18.0082 8.66193 18.2553 8.58239 18.457 8.4233C18.6616 8.26136 18.8178 8.03551 18.9258 7.74574C19.0366 7.45597 19.092 7.11648 19.092 6.72727C19.092 6.33807 19.038 6 18.93 5.71307C18.8221 5.42614 18.6658 5.20455 18.4613 5.0483C18.2567 4.89205 18.0082 4.81392 17.7156 4.81392C17.4173 4.81392 17.1658 4.89489 16.9613 5.05682C16.7567 5.21875 16.6019 5.44318 16.4968 5.73011C16.3917 6.01705 16.3391 6.34943 16.3391 6.72727C16.3391 7.10795 16.3917 7.4446 16.4968 7.73722C16.6048 8.02699 16.7596 8.25426 16.9613 8.41903C17.1658 8.58097 17.4173 8.66193 17.7156 8.66193ZM26.5195 7.21307V3.45455H28.3349V10H26.592V8.81108H26.5238C26.3761 9.1946 26.1303 9.50284 25.7866 9.7358C25.4457 9.96875 25.0295 10.0852 24.538 10.0852C24.1005 10.0852 23.7156 9.9858 23.3832 9.78693C23.0508 9.58807 22.7908 9.3054 22.6033 8.93892C22.4187 8.57244 22.3249 8.13352 22.3221 7.62216V3.45455H24.1374V7.2983C24.1403 7.68466 24.244 7.99006 24.4485 8.21449C24.6531 8.43892 24.9272 8.55114 25.271 8.55114C25.4897 8.55114 25.6942 8.50142 25.8846 8.40199C26.0749 8.29972 26.2283 8.14915 26.3448 7.95028C26.4641 7.75142 26.5224 7.50568 26.5195 7.21307ZM29.7869 10V3.45455H31.6023V10H29.7869ZM30.6989 2.6108C30.429 2.6108 30.1974 2.52131 30.0043 2.34233C29.8139 2.16051 29.7188 1.94318 29.7188 1.69034C29.7188 1.44034 29.8139 1.22585 30.0043 1.04688C30.1974 0.865057 30.429 0.774147 30.6989 0.774147C30.9688 0.774147 31.1989 0.865057 31.3892 1.04688C31.5824 1.22585 31.679 1.44034 31.679 1.69034C31.679 1.94318 31.5824 2.16051 31.3892 2.34233C31.1989 2.52131 30.9688 2.6108 30.6989 2.6108ZM38.5025 5.32102L36.8406 5.4233C36.8121 5.28125 36.7511 5.15341 36.6573 5.03977C36.5636 4.9233 36.44 4.83097 36.2866 4.76278C36.136 4.69176 35.9556 4.65625 35.7454 4.65625C35.4641 4.65625 35.2269 4.71591 35.0337 4.83523C34.8406 4.9517 34.744 5.10795 34.744 5.30398C34.744 5.46023 34.8065 5.59233 34.9315 5.70028C35.0565 5.80824 35.271 5.89489 35.5749 5.96023L36.7596 6.19886C37.396 6.32955 37.8704 6.53977 38.1829 6.82955C38.4954 7.11932 38.6516 7.5 38.6516 7.97159C38.6516 8.40057 38.5252 8.77699 38.2724 9.10085C38.0224 9.42472 37.6786 9.67756 37.2411 9.85938C36.8065 10.0384 36.305 10.1278 35.7369 10.1278C34.8704 10.1278 34.18 9.94744 33.6658 9.58665C33.1545 9.22301 32.8548 8.72869 32.7667 8.10369L34.5522 8.00994C34.6062 8.27415 34.7369 8.47585 34.9442 8.61506C35.1516 8.75142 35.4173 8.8196 35.7411 8.8196C36.0593 8.8196 36.315 8.75852 36.5082 8.63636C36.7042 8.51136 36.8036 8.35085 36.8065 8.15483C36.8036 7.99006 36.734 7.85511 36.5977 7.75C36.4613 7.64205 36.2511 7.55966 35.967 7.50284L34.8335 7.27699C34.1942 7.14915 33.7184 6.92756 33.4059 6.61222C33.0962 6.29687 32.9414 5.89489 32.9414 5.40625C32.9414 4.9858 33.055 4.62358 33.2823 4.3196C33.5124 4.01562 33.8349 3.78125 34.2496 3.61648C34.6673 3.4517 35.1559 3.36932 35.7156 3.36932C36.5423 3.36932 37.1928 3.54403 37.6673 3.89347C38.1445 4.2429 38.4229 4.71875 38.5025 5.32102ZM42.7777 10.1278C42.1044 10.1278 41.5249 9.99148 41.0391 9.71875C40.5561 9.44318 40.1839 9.05398 39.9226 8.55114C39.6612 8.04545 39.5305 7.44744 39.5305 6.7571C39.5305 6.08381 39.6612 5.4929 39.9226 4.98438C40.1839 4.47585 40.5518 4.07955 41.0263 3.79545C41.5036 3.51136 42.0632 3.36932 42.7053 3.36932C43.1371 3.36932 43.5391 3.43892 43.9112 3.57812C44.2862 3.71449 44.6129 3.92045 44.8913 4.19602C45.1726 4.47159 45.3913 4.81818 45.5476 5.2358C45.7038 5.65057 45.782 6.13636 45.782 6.69318V7.19176H40.255V6.06676H44.0732C44.0732 5.8054 44.0163 5.57386 43.9027 5.37216C43.7891 5.17045 43.6314 5.01278 43.4297 4.89915C43.2308 4.78267 42.9993 4.72443 42.7351 4.72443C42.4595 4.72443 42.2152 4.78835 42.0021 4.91619C41.7919 5.04119 41.6271 5.21023 41.5078 5.4233C41.3885 5.63352 41.3274 5.8679 41.3246 6.12642V7.19602C41.3246 7.51989 41.3842 7.79972 41.5036 8.03551C41.6257 8.27131 41.7976 8.45312 42.0192 8.58097C42.2408 8.70881 42.5036 8.77273 42.8075 8.77273C43.0092 8.77273 43.1939 8.74432 43.3615 8.6875C43.5291 8.63068 43.6726 8.54545 43.7919 8.43182C43.9112 8.31818 44.0021 8.17898 44.0646 8.0142L45.7436 8.125C45.6584 8.52841 45.4837 8.88068 45.2195 9.18182C44.9581 9.48011 44.62 9.71307 44.2053 9.88068C43.7933 10.0455 43.3175 10.1278 42.7777 10.1278ZM51.7425 10L49.2454 1.27273H51.261L52.7056 7.33665H52.7781L54.3718 1.27273H56.0977L57.6871 7.34943H57.7638L59.2085 1.27273H61.2241L58.7269 10H56.9286L55.2667 4.29403H55.1985L53.5408 10H51.7425ZM62.2116 10V1.27273H65.6548C66.3168 1.27273 66.8807 1.39915 67.3466 1.65199C67.8125 1.90199 68.1676 2.25 68.4119 2.69602C68.6591 3.1392 68.7827 3.65057 68.7827 4.23011C68.7827 4.80966 68.6577 5.32102 68.4077 5.7642C68.1577 6.20739 67.7955 6.55256 67.321 6.79972C66.8494 7.04687 66.2784 7.17045 65.608 7.17045H63.4134V5.69176H65.3097C65.6648 5.69176 65.9574 5.63068 66.1875 5.50852C66.4205 5.38352 66.5938 5.21165 66.7074 4.9929C66.8239 4.77131 66.8821 4.51705 66.8821 4.23011C66.8821 3.94034 66.8239 3.6875 66.7074 3.47159C66.5938 3.25284 66.4205 3.08381 66.1875 2.96449C65.9545 2.84233 65.6591 2.78125 65.3011 2.78125H64.0568V10H62.2116ZM69.9812 10V1.27273H75.7596V2.79403H71.8263V4.87358H75.3761V6.39489H71.8263V10H69.9812ZM84.5124 3.78267C84.4783 3.43892 84.332 3.17187 84.0735 2.98153C83.815 2.79119 83.4641 2.69602 83.021 2.69602C82.7198 2.69602 82.4656 2.73864 82.2582 2.82386C82.0508 2.90625 81.8917 3.02131 81.7809 3.16903C81.6729 3.31676 81.619 3.48438 81.619 3.67188C81.6133 3.82812 81.646 3.96449 81.717 4.08097C81.7908 4.19744 81.8917 4.2983 82.0195 4.38352C82.1474 4.46591 82.2951 4.53835 82.4627 4.60085C82.6303 4.66051 82.8093 4.71165 82.9996 4.75426L83.7837 4.94176C84.1644 5.02699 84.5138 5.14062 84.832 5.28267C85.1502 5.42472 85.4258 5.59943 85.6587 5.80682C85.8917 6.0142 86.0721 6.25852 86.1999 6.53977C86.3306 6.82102 86.3974 7.14347 86.4002 7.5071C86.3974 8.04119 86.261 8.50426 85.9911 8.89631C85.7241 9.28551 85.3377 9.58807 84.832 9.80398C84.3292 10.017 83.7227 10.1236 83.0124 10.1236C82.3079 10.1236 81.6942 10.0156 81.1715 9.79972C80.6516 9.58381 80.2454 9.2642 79.9528 8.84091C79.663 8.41477 79.511 7.88778 79.4968 7.25994H81.2823C81.3022 7.55256 81.386 7.79687 81.5337 7.9929C81.6843 8.18608 81.8846 8.33239 82.1346 8.43182C82.3874 8.52841 82.6729 8.5767 82.9911 8.5767C83.3036 8.5767 83.5749 8.53125 83.805 8.44034C84.038 8.34943 84.2184 8.22301 84.3462 8.06108C84.4741 7.89915 84.538 7.71307 84.538 7.50284C84.538 7.30682 84.4798 7.14205 84.3633 7.00852C84.2496 6.875 84.082 6.76136 83.8604 6.66761C83.6417 6.57386 83.3732 6.48864 83.055 6.41193L82.1048 6.1733C81.369 5.99432 80.788 5.71449 80.3619 5.33381C79.9357 4.95312 79.7241 4.44034 79.7269 3.79545C79.7241 3.26705 79.8647 2.8054 80.1488 2.41051C80.4357 2.01562 80.8292 1.70739 81.3292 1.4858C81.8292 1.2642 82.3974 1.15341 83.0337 1.15341C83.6815 1.15341 84.2468 1.2642 84.7298 1.4858C85.2156 1.70739 85.5934 2.01562 85.8633 2.41051C86.1332 2.8054 86.2724 3.26278 86.2809 3.78267H84.5124ZM89.4226 6.21591V10H87.6072V1.27273H89.3714V4.60938H89.4482C89.5959 4.22301 89.8345 3.92045 90.1641 3.7017C90.4936 3.48011 90.907 3.36932 91.4041 3.36932C91.8587 3.36932 92.255 3.46875 92.593 3.66761C92.9339 3.86364 93.1982 4.14631 93.3857 4.51562C93.576 4.8821 93.6697 5.32102 93.6669 5.83239V10H91.8516V6.15625C91.8544 5.75284 91.7521 5.43892 91.5447 5.21449C91.3402 4.99006 91.0533 4.87784 90.6839 4.87784C90.4368 4.87784 90.218 4.9304 90.0277 5.03551C89.8402 5.14062 89.6925 5.29403 89.5845 5.49574C89.4794 5.6946 89.4254 5.93466 89.4226 6.21591ZM98.0785 10.1278C97.4052 10.1278 96.8256 9.99148 96.3398 9.71875C95.8569 9.44318 95.4847 9.05398 95.2234 8.55114C94.962 8.04545 94.8313 7.44744 94.8313 6.7571C94.8313 6.08381 94.962 5.4929 95.2234 4.98438C95.4847 4.47585 95.8526 4.07955 96.3271 3.79545C96.8043 3.51136 97.364 3.36932 98.006 3.36932C98.4379 3.36932 98.8398 3.43892 99.212 3.57812C99.587 3.71449 99.9137 3.92045 100.192 4.19602C100.473 4.47159 100.692 4.81818 100.848 5.2358C101.005 5.65057 101.083 6.13636 101.083 6.69318V7.19176H95.5558V6.06676H99.3739C99.3739 5.8054 99.3171 5.57386 99.2035 5.37216C99.0898 5.17045 98.9322 5.01278 98.7305 4.89915C98.5316 4.78267 98.3001 4.72443 98.0359 4.72443C97.7603 4.72443 97.516 4.78835 97.3029 4.91619C97.0927 5.04119 96.9279 5.21023 96.8086 5.4233C96.6893 5.63352 96.6282 5.8679 96.6254 6.12642V7.19602C96.6254 7.51989 96.685 7.79972 96.8043 8.03551C96.9265 8.27131 97.0984 8.45312 97.32 8.58097C97.5415 8.70881 97.8043 8.77273 98.1083 8.77273C98.31 8.77273 98.4947 8.74432 98.6623 8.6875C98.8299 8.63068 98.9734 8.54545 99.0927 8.43182C99.212 8.31818 99.3029 8.17898 99.3654 8.0142L101.044 8.125C100.959 8.52841 100.784 8.88068 100.52 9.18182C100.259 9.48011 99.9208 9.71307 99.506 9.88068C99.0941 10.0455 98.6183 10.1278 98.0785 10.1278ZM104.083 1.27273V10H102.267V1.27273H104.083ZM107.352 1.27273V10H105.537V1.27273H107.352Z" fill="black"/>
<rect y="154" width="159" height="97" fill="#D9D9D9"/>
<path d="M49.7585 207V198.273H53.2528C53.8949 198.273 54.4304 198.368 54.8594 198.558C55.2884 198.749 55.6108 199.013 55.8267 199.351C56.0426 199.686 56.1506 200.072 56.1506 200.51C56.1506 200.851 56.0824 201.151 55.946 201.409C55.8097 201.665 55.6222 201.875 55.3835 202.04C55.1477 202.202 54.8778 202.317 54.5739 202.385V202.47C54.9063 202.484 55.2173 202.578 55.5071 202.751C55.7997 202.925 56.0369 203.168 56.2188 203.48C56.4006 203.79 56.4915 204.159 56.4915 204.588C56.4915 205.051 56.3764 205.464 56.1463 205.828C55.919 206.189 55.5824 206.474 55.1364 206.685C54.6903 206.895 54.1406 207 53.4872 207H49.7585ZM51.6037 205.491H53.108C53.6222 205.491 53.9972 205.393 54.233 205.197C54.4688 204.999 54.5866 204.734 54.5866 204.405C54.5866 204.163 54.5284 203.95 54.4119 203.766C54.2955 203.581 54.1293 203.436 53.9134 203.331C53.7003 203.226 53.446 203.173 53.1506 203.173H51.6037V205.491ZM51.6037 201.925H52.9716C53.2244 201.925 53.4489 201.881 53.6449 201.793C53.8438 201.702 54 201.574 54.1136 201.409C54.2301 201.244 54.2884 201.047 54.2884 200.817C54.2884 200.501 54.1761 200.247 53.9517 200.054C53.7301 199.861 53.4148 199.764 53.0057 199.764H51.6037V201.925ZM59.4734 198.273V207H57.658V198.273H59.4734ZM62.794 207.124C62.3764 207.124 62.0043 207.051 61.6776 206.906C61.3509 206.759 61.0923 206.541 60.902 206.254C60.7145 205.964 60.6207 205.604 60.6207 205.172C60.6207 204.808 60.6875 204.503 60.821 204.256C60.9545 204.009 61.1364 203.81 61.3665 203.659C61.5966 203.509 61.858 203.395 62.1506 203.318C62.446 203.241 62.7557 203.188 63.0795 203.156C63.4602 203.116 63.767 203.08 64 203.045C64.233 203.009 64.402 202.955 64.5071 202.884C64.6122 202.812 64.6648 202.707 64.6648 202.568V202.543C64.6648 202.273 64.5795 202.064 64.4091 201.916C64.2415 201.768 64.0028 201.695 63.6932 201.695C63.3665 201.695 63.1065 201.767 62.9134 201.912C62.7202 202.054 62.5923 202.233 62.5298 202.449L60.8509 202.312C60.9361 201.915 61.1037 201.571 61.3537 201.281C61.6037 200.989 61.9261 200.764 62.321 200.608C62.7188 200.449 63.179 200.369 63.7017 200.369C64.0653 200.369 64.4134 200.412 64.7457 200.497C65.081 200.582 65.3778 200.714 65.6364 200.893C65.8977 201.072 66.1037 201.303 66.2543 201.584C66.4048 201.862 66.4801 202.196 66.4801 202.585V207H64.7585V206.092H64.7074C64.6023 206.297 64.4616 206.477 64.2855 206.634C64.1094 206.787 63.8977 206.908 63.6506 206.996C63.4034 207.081 63.1179 207.124 62.794 207.124ZM63.3139 205.871C63.581 205.871 63.8168 205.818 64.0213 205.713C64.2259 205.605 64.3864 205.46 64.5028 205.278C64.6193 205.097 64.6776 204.891 64.6776 204.661V203.966C64.6207 204.003 64.5426 204.037 64.4432 204.068C64.3466 204.097 64.2372 204.124 64.1151 204.149C63.9929 204.172 63.8707 204.193 63.7486 204.213C63.6264 204.23 63.5156 204.246 63.4162 204.26C63.2031 204.291 63.017 204.341 62.858 204.409C62.6989 204.477 62.5753 204.57 62.4872 204.686C62.3991 204.8 62.3551 204.942 62.3551 205.112C62.3551 205.359 62.4446 205.548 62.6236 205.679C62.8054 205.807 63.0355 205.871 63.3139 205.871ZM67.8544 207V205.918L71.0589 201.95V201.903H67.9652V200.455H73.245V201.635L70.2365 205.504V205.551H73.3558V207H67.8544ZM77.5138 207.128C76.8519 207.128 76.2795 206.987 75.7965 206.706C75.3164 206.422 74.9457 206.027 74.6843 205.521C74.4229 205.013 74.2923 204.423 74.2923 203.753C74.2923 203.077 74.4229 202.486 74.6843 201.98C74.9457 201.472 75.3164 201.077 75.7965 200.795C76.2795 200.511 76.8519 200.369 77.5138 200.369C78.1758 200.369 78.7468 200.511 79.2269 200.795C79.7099 201.077 80.082 201.472 80.3434 201.98C80.6048 202.486 80.7354 203.077 80.7354 203.753C80.7354 204.423 80.6048 205.013 80.3434 205.521C80.082 206.027 79.7099 206.422 79.2269 206.706C78.7468 206.987 78.1758 207.128 77.5138 207.128ZM77.5224 205.722C77.8235 205.722 78.0749 205.636 78.2766 205.466C78.4783 205.293 78.6303 205.057 78.7326 204.759C78.8377 204.46 78.8903 204.121 78.8903 203.74C78.8903 203.359 78.8377 203.02 78.7326 202.722C78.6303 202.423 78.4783 202.187 78.2766 202.014C78.0749 201.841 77.8235 201.754 77.5224 201.754C77.2184 201.754 76.9627 201.841 76.7553 202.014C76.5508 202.187 76.396 202.423 76.2908 202.722C76.1886 203.02 76.1374 203.359 76.1374 203.74C76.1374 204.121 76.1886 204.46 76.2908 204.759C76.396 205.057 76.5508 205.293 76.7553 205.466C76.9627 205.636 77.2184 205.722 77.5224 205.722ZM81.9158 207V200.455H83.6758V201.597H83.744C83.8633 201.19 84.0636 200.884 84.3448 200.676C84.6261 200.466 84.9499 200.361 85.3164 200.361C85.4073 200.361 85.5053 200.366 85.6104 200.378C85.7156 200.389 85.8079 200.405 85.8874 200.425V202.036C85.8022 202.01 85.6843 201.987 85.5337 201.967C85.3832 201.947 85.2454 201.938 85.1204 201.938C84.8533 201.938 84.6147 201.996 84.4045 202.112C84.1971 202.226 84.0323 202.385 83.9102 202.589C83.7908 202.794 83.7312 203.03 83.7312 203.297V207H81.9158ZM97.3377 201.328H95.4712C95.4371 201.087 95.3675 200.872 95.2624 200.685C95.1573 200.494 95.0224 200.332 94.8576 200.199C94.6928 200.065 94.5025 199.963 94.2866 199.892C94.0735 199.821 93.842 199.786 93.592 199.786C93.1403 199.786 92.7468 199.898 92.4116 200.122C92.0763 200.344 91.8164 200.668 91.6317 201.094C91.4471 201.517 91.3548 202.031 91.3548 202.636C91.3548 203.259 91.4471 203.781 91.6317 204.205C91.8192 204.628 92.0806 204.947 92.4158 205.163C92.7511 205.379 93.1388 205.487 93.5792 205.487C93.8263 205.487 94.055 205.455 94.2653 205.389C94.4783 205.324 94.6673 205.229 94.832 205.104C94.9968 204.976 95.1332 204.821 95.2411 204.639C95.3519 204.457 95.4286 204.25 95.4712 204.017L97.3377 204.026C97.2894 204.426 97.1687 204.812 96.9755 205.185C96.7852 205.554 96.5281 205.885 96.2042 206.178C95.8832 206.467 95.4996 206.697 95.0536 206.868C94.6104 207.036 94.109 207.119 93.5494 207.119C92.771 207.119 92.0749 206.943 91.4613 206.591C90.8505 206.239 90.3675 205.729 90.0124 205.061C89.6602 204.393 89.484 203.585 89.484 202.636C89.484 201.685 89.663 200.875 90.021 200.207C90.3789 199.54 90.8647 199.031 91.4783 198.682C92.092 198.33 92.7823 198.153 93.5494 198.153C94.055 198.153 94.5238 198.224 94.9556 198.366C95.3903 198.509 95.7752 198.716 96.1104 198.989C96.4457 199.259 96.7184 199.589 96.9286 199.982C97.1417 200.374 97.2781 200.822 97.3377 201.328ZM100.442 198.273V207H98.6268V198.273H100.442ZM101.896 207V200.455H103.712V207H101.896ZM102.808 199.611C102.538 199.611 102.307 199.521 102.114 199.342C101.923 199.161 101.828 198.943 101.828 198.69C101.828 198.44 101.923 198.226 102.114 198.047C102.307 197.865 102.538 197.774 102.808 197.774C103.078 197.774 103.308 197.865 103.499 198.047C103.692 198.226 103.788 198.44 103.788 198.69C103.788 198.943 103.692 199.161 103.499 199.342C103.308 199.521 103.078 199.611 102.808 199.611ZM108.149 207.128C107.475 207.128 106.896 206.991 106.41 206.719C105.927 206.443 105.555 206.054 105.294 205.551C105.032 205.045 104.902 204.447 104.902 203.757C104.902 203.084 105.032 202.493 105.294 201.984C105.555 201.476 105.923 201.08 106.397 200.795C106.875 200.511 107.434 200.369 108.076 200.369C108.508 200.369 108.91 200.439 109.282 200.578C109.657 200.714 109.984 200.92 110.262 201.196C110.544 201.472 110.762 201.818 110.919 202.236C111.075 202.651 111.153 203.136 111.153 203.693V204.192H105.626V203.067H109.444C109.444 202.805 109.387 202.574 109.274 202.372C109.16 202.17 109.002 202.013 108.801 201.899C108.602 201.783 108.37 201.724 108.106 201.724C107.831 201.724 107.586 201.788 107.373 201.916C107.163 202.041 106.998 202.21 106.879 202.423C106.76 202.634 106.699 202.868 106.696 203.126V204.196C106.696 204.52 106.755 204.8 106.875 205.036C106.997 205.271 107.169 205.453 107.39 205.581C107.612 205.709 107.875 205.773 108.179 205.773C108.38 205.773 108.565 205.744 108.733 205.688C108.9 205.631 109.044 205.545 109.163 205.432C109.282 205.318 109.373 205.179 109.436 205.014L111.115 205.125C111.029 205.528 110.855 205.881 110.591 206.182C110.329 206.48 109.991 206.713 109.576 206.881C109.164 207.045 108.689 207.128 108.149 207.128ZM114.153 203.216V207H112.338V200.455H114.068V201.609H114.145C114.289 201.229 114.532 200.928 114.873 200.706C115.214 200.482 115.627 200.369 116.113 200.369C116.568 200.369 116.964 200.469 117.302 200.668C117.64 200.866 117.903 201.151 118.091 201.52C118.278 201.886 118.372 202.324 118.372 202.832V207H116.556V203.156C116.559 202.756 116.457 202.443 116.25 202.219C116.042 201.991 115.757 201.878 115.393 201.878C115.149 201.878 114.933 201.93 114.745 202.036C114.561 202.141 114.416 202.294 114.311 202.496C114.208 202.695 114.156 202.935 114.153 203.216ZM123.284 200.455V201.818H119.342V200.455H123.284ZM120.237 198.886H122.053V204.989C122.053 205.156 122.078 205.287 122.129 205.381C122.18 205.472 122.251 205.536 122.342 205.572C122.436 205.609 122.544 205.628 122.666 205.628C122.751 205.628 122.837 205.621 122.922 205.607C123.007 205.589 123.072 205.577 123.118 205.568L123.403 206.919C123.313 206.947 123.185 206.98 123.02 207.017C122.855 207.057 122.655 207.081 122.419 207.089C121.982 207.107 121.598 207.048 121.268 206.915C120.942 206.781 120.688 206.574 120.506 206.293C120.324 206.011 120.234 205.656 120.237 205.227V198.886Z" fill="black"/>
<path d="M49.7585 207V198.273H53.2528C53.8949 198.273 54.4304 198.368 54.8594 198.558C55.2884 198.749 55.6108 199.013 55.8267 199.351C56.0426 199.686 56.1506 200.072 56.1506 200.51C56.1506 200.851 56.0824 201.151 55.946 201.409C55.8097 201.665 55.6222 201.875 55.3835 202.04C55.1477 202.202 54.8778 202.317 54.5739 202.385V202.47C54.9063 202.484 55.2173 202.578 55.5071 202.751C55.7997 202.925 56.0369 203.168 56.2188 203.48C56.4006 203.79 56.4915 204.159 56.4915 204.588C56.4915 205.051 56.3764 205.464 56.1463 205.828C55.919 206.189 55.5824 206.474 55.1364 206.685C54.6903 206.895 54.1406 207 53.4872 207H49.7585ZM51.6037 205.491H53.108C53.6222 205.491 53.9972 205.393 54.233 205.197C54.4688 204.999 54.5866 204.734 54.5866 204.405C54.5866 204.163 54.5284 203.95 54.4119 203.766C54.2955 203.581 54.1293 203.436 53.9134 203.331C53.7003 203.226 53.446 203.173 53.1506 203.173H51.6037V205.491ZM51.6037 201.925H52.9716C53.2244 201.925 53.4489 201.881 53.6449 201.793C53.8438 201.702 54 201.574 54.1136 201.409C54.2301 201.244 54.2884 201.047 54.2884 200.817C54.2884 200.501 54.1761 200.247 53.9517 200.054C53.7301 199.861 53.4148 199.764 53.0057 199.764H51.6037V201.925ZM59.4734 198.273V207H57.658V198.273H59.4734ZM62.794 207.124C62.3764 207.124 62.0043 207.051 61.6776 206.906C61.3509 206.759 61.0923 206.541 60.902 206.254C60.7145 205.964 60.6207 205.604 60.6207 205.172C60.6207 204.808 60.6875 204.503 60.821 204.256C60.9545 204.009 61.1364 203.81 61.3665 203.659C61.5966 203.509 61.858 203.395 62.1506 203.318C62.446 203.241 62.7557 203.188 63.0795 203.156C63.4602 203.116 63.767 203.08 64 203.045C64.233 203.009 64.402 202.955 64.5071 202.884C64.6122 202.812 64.6648 202.707 64.6648 202.568V202.543C64.6648 202.273 64.5795 202.064 64.4091 201.916C64.2415 201.768 64.0028 201.695 63.6932 201.695C63.3665 201.695 63.1065 201.767 62.9134 201.912C62.7202 202.054 62.5923 202.233 62.5298 202.449L60.8509 202.312C60.9361 201.915 61.1037 201.571 61.3537 201.281C61.6037 200.989 61.9261 200.764 62.321 200.608C62.7188 200.449 63.179 200.369 63.7017 200.369C64.0653 200.369 64.4134 200.412 64.7457 200.497C65.081 200.582 65.3778 200.714 65.6364 200.893C65.8977 201.072 66.1037 201.303 66.2543 201.584C66.4048 201.862 66.4801 202.196 66.4801 202.585V207H64.7585V206.092H64.7074C64.6023 206.297 64.4616 206.477 64.2855 206.634C64.1094 206.787 63.8977 206.908 63.6506 206.996C63.4034 207.081 63.1179 207.124 62.794 207.124ZM63.3139 205.871C63.581 205.871 63.8168 205.818 64.0213 205.713C64.2259 205.605 64.3864 205.46 64.5028 205.278C64.6193 205.097 64.6776 204.891 64.6776 204.661V203.966C64.6207 204.003 64.5426 204.037 64.4432 204.068C64.3466 204.097 64.2372 204.124 64.1151 204.149C63.9929 204.172 63.8707 204.193 63.7486 204.213C63.6264 204.23 63.5156 204.246 63.4162 204.26C63.2031 204.291 63.017 204.341 62.858 204.409C62.6989 204.477 62.5753 204.57 62.4872 204.686C62.3991 204.8 62.3551 204.942 62.3551 205.112C62.3551 205.359 62.4446 205.548 62.6236 205.679C62.8054 205.807 63.0355 205.871 63.3139 205.871ZM67.8544 207V205.918L71.0589 201.95V201.903H67.9652V200.455H73.245V201.635L70.2365 205.504V205.551H73.3558V207H67.8544ZM77.5138 207.128C76.8519 207.128 76.2795 206.987 75.7965 206.706C75.3164 206.422 74.9457 206.027 74.6843 205.521C74.4229 205.013 74.2923 204.423 74.2923 203.753C74.2923 203.077 74.4229 202.486 74.6843 201.98C74.9457 201.472 75.3164 201.077 75.7965 200.795C76.2795 200.511 76.8519 200.369 77.5138 200.369C78.1758 200.369 78.7468 200.511 79.2269 200.795C79.7099 201.077 80.082 201.472 80.3434 201.98C80.6048 202.486 80.7354 203.077 80.7354 203.753C80.7354 204.423 80.6048 205.013 80.3434 205.521C80.082 206.027 79.7099 206.422 79.2269 206.706C78.7468 206.987 78.1758 207.128 77.5138 207.128ZM77.5224 205.722C77.8235 205.722 78.0749 205.636 78.2766 205.466C78.4783 205.293 78.6303 205.057 78.7326 204.759C78.8377 204.46 78.8903 204.121 78.8903 203.74C78.8903 203.359 78.8377 203.02 78.7326 202.722C78.6303 202.423 78.4783 202.187 78.2766 202.014C78.0749 201.841 77.8235 201.754 77.5224 201.754C77.2184 201.754 76.9627 201.841 76.7553 202.014C76.5508 202.187 76.396 202.423 76.2908 202.722C76.1886 203.02 76.1374 203.359 76.1374 203.74C76.1374 204.121 76.1886 204.46 76.2908 204.759C76.396 205.057 76.5508 205.293 76.7553 205.466C76.9627 205.636 77.2184 205.722 77.5224 205.722ZM81.9158 207V200.455H83.6758V201.597H83.744C83.8633 201.19 84.0636 200.884 84.3448 200.676C84.6261 200.466 84.9499 200.361 85.3164 200.361C85.4073 200.361 85.5053 200.366 85.6104 200.378C85.7156 200.389 85.8079 200.405 85.8874 200.425V202.036C85.8022 202.01 85.6843 201.987 85.5337 201.967C85.3832 201.947 85.2454 201.938 85.1204 201.938C84.8533 201.938 84.6147 201.996 84.4045 202.112C84.1971 202.226 84.0323 202.385 83.9102 202.589C83.7908 202.794 83.7312 203.03 83.7312 203.297V207H81.9158ZM97.3377 201.328H95.4712C95.4371 201.087 95.3675 200.872 95.2624 200.685C95.1573 200.494 95.0224 200.332 94.8576 200.199C94.6928 200.065 94.5025 199.963 94.2866 199.892C94.0735 199.821 93.842 199.786 93.592 199.786C93.1403 199.786 92.7468 199.898 92.4116 200.122C92.0763 200.344 91.8164 200.668 91.6317 201.094C91.4471 201.517 91.3548 202.031 91.3548 202.636C91.3548 203.259 91.4471 203.781 91.6317 204.205C91.8192 204.628 92.0806 204.947 92.4158 205.163C92.7511 205.379 93.1388 205.487 93.5792 205.487C93.8263 205.487 94.055 205.455 94.2653 205.389C94.4783 205.324 94.6673 205.229 94.832 205.104C94.9968 204.976 95.1332 204.821 95.2411 204.639C95.3519 204.457 95.4286 204.25 95.4712 204.017L97.3377 204.026C97.2894 204.426 97.1687 204.812 96.9755 205.185C96.7852 205.554 96.5281 205.885 96.2042 206.178C95.8832 206.467 95.4996 206.697 95.0536 206.868C94.6104 207.036 94.109 207.119 93.5494 207.119C92.771 207.119 92.0749 206.943 91.4613 206.591C90.8505 206.239 90.3675 205.729 90.0124 205.061C89.6602 204.393 89.484 203.585 89.484 202.636C89.484 201.685 89.663 200.875 90.021 200.207C90.3789 199.54 90.8647 199.031 91.4783 198.682C92.092 198.33 92.7823 198.153 93.5494 198.153C94.055 198.153 94.5238 198.224 94.9556 198.366C95.3903 198.509 95.7752 198.716 96.1104 198.989C96.4457 199.259 96.7184 199.589 96.9286 199.982C97.1417 200.374 97.2781 200.822 97.3377 201.328ZM100.442 198.273V207H98.6268V198.273H100.442ZM101.896 207V200.455H103.712V207H101.896ZM102.808 199.611C102.538 199.611 102.307 199.521 102.114 199.342C101.923 199.161 101.828 198.943 101.828 198.69C101.828 198.44 101.923 198.226 102.114 198.047C102.307 197.865 102.538 197.774 102.808 197.774C103.078 197.774 103.308 197.865 103.499 198.047C103.692 198.226 103.788 198.44 103.788 198.69C103.788 198.943 103.692 199.161 103.499 199.342C103.308 199.521 103.078 199.611 102.808 199.611ZM108.149 207.128C107.475 207.128 106.896 206.991 106.41 206.719C105.927 206.443 105.555 206.054 105.294 205.551C105.032 205.045 104.902 204.447 104.902 203.757C104.902 203.084 105.032 202.493 105.294 201.984C105.555 201.476 105.923 201.08 106.397 200.795C106.875 200.511 107.434 200.369 108.076 200.369C108.508 200.369 108.91 200.439 109.282 200.578C109.657 200.714 109.984 200.92 110.262 201.196C110.544 201.472 110.762 201.818 110.919 202.236C111.075 202.651 111.153 203.136 111.153 203.693V204.192H105.626V203.067H109.444C109.444 202.805 109.387 202.574 109.274 202.372C109.16 202.17 109.002 202.013 108.801 201.899C108.602 201.783 108.37 201.724 108.106 201.724C107.831 201.724 107.586 201.788 107.373 201.916C107.163 202.041 106.998 202.21 106.879 202.423C106.76 202.634 106.699 202.868 106.696 203.126V204.196C106.696 204.52 106.755 204.8 106.875 205.036C106.997 205.271 107.169 205.453 107.39 205.581C107.612 205.709 107.875 205.773 108.179 205.773C108.38 205.773 108.565 205.744 108.733 205.688C108.9 205.631 109.044 205.545 109.163 205.432C109.282 205.318 109.373 205.179 109.436 205.014L111.115 205.125C111.029 205.528 110.855 205.881 110.591 206.182C110.329 206.48 109.991 206.713 109.576 206.881C109.164 207.045 108.689 207.128 108.149 207.128ZM114.153 203.216V207H112.338V200.455H114.068V201.609H114.145C114.289 201.229 114.532 200.928 114.873 200.706C115.214 200.482 115.627 200.369 116.113 200.369C116.568 200.369 116.964 200.469 117.302 200.668C117.64 200.866 117.903 201.151 118.091 201.52C118.278 201.886 118.372 202.324 118.372 202.832V207H116.556V203.156C116.559 202.756 116.457 202.443 116.25 202.219C116.042 201.991 115.757 201.878 115.393 201.878C115.149 201.878 114.933 201.93 114.745 202.036C114.561 202.141 114.416 202.294 114.311 202.496C114.208 202.695 114.156 202.935 114.153 203.216ZM123.284 200.455V201.818H119.342V200.455H123.284ZM120.237 198.886H122.053V204.989C122.053 205.156 122.078 205.287 122.129 205.381C122.18 205.472 122.251 205.536 122.342 205.572C122.436 205.609 122.544 205.628 122.666 205.628C122.751 205.628 122.837 205.621 122.922 205.607C123.007 205.589 123.072 205.577 123.118 205.568L123.403 206.919C123.313 206.947 123.185 206.98 123.02 207.017C122.855 207.057 122.655 207.081 122.419 207.089C121.982 207.107 121.598 207.048 121.268 206.915C120.942 206.781 120.688 206.574 120.506 206.293C120.324 206.011 120.234 205.656 120.237 205.227V198.886Z" fill="black"/>
<rect x="346" y="154" width="159" height="97" fill="#D9D9D9"/>
<rect x="346" y="275" width="159" height="97" fill="#D9D9D9"/>
<rect x="346" y="32" width="159" height="97" fill="#D9D9D9"/>
<path d="M388.778 202.636C388.778 203.588 388.598 204.398 388.237 205.065C387.879 205.733 387.391 206.243 386.771 206.595C386.155 206.945 385.462 207.119 384.692 207.119C383.916 207.119 383.22 206.943 382.604 206.591C381.987 206.239 381.5 205.729 381.142 205.061C380.784 204.393 380.605 203.585 380.605 202.636C380.605 201.685 380.784 200.875 381.142 200.207C381.5 199.54 381.987 199.031 382.604 198.682C383.22 198.33 383.916 198.153 384.692 198.153C385.462 198.153 386.155 198.33 386.771 198.682C387.391 199.031 387.879 199.54 388.237 200.207C388.598 200.875 388.778 201.685 388.778 202.636ZM386.908 202.636C386.908 202.02 386.815 201.5 386.631 201.077C386.449 200.653 386.192 200.332 385.859 200.114C385.527 199.895 385.138 199.786 384.692 199.786C384.246 199.786 383.857 199.895 383.524 200.114C383.192 200.332 382.933 200.653 382.749 201.077C382.567 201.5 382.476 202.02 382.476 202.636C382.476 203.253 382.567 203.773 382.749 204.196C382.933 204.619 383.192 204.94 383.524 205.159C383.857 205.378 384.246 205.487 384.692 205.487C385.138 205.487 385.527 205.378 385.859 205.159C386.192 204.94 386.449 204.619 386.631 204.196C386.815 203.773 386.908 203.253 386.908 202.636ZM390.111 207V200.455H391.871V201.597H391.939C392.059 201.19 392.259 200.884 392.54 200.676C392.821 200.466 393.145 200.361 393.512 200.361C393.603 200.361 393.701 200.366 393.806 200.378C393.911 200.389 394.003 200.405 394.083 200.425V202.036C393.998 202.01 393.88 201.987 393.729 201.967C393.578 201.947 393.441 201.938 393.316 201.938C393.049 201.938 392.81 201.996 392.6 202.112C392.392 202.226 392.228 202.385 392.105 202.589C391.986 202.794 391.926 203.03 391.926 203.297V207H390.111ZM395.021 207V200.455H396.837V207H395.021ZM395.933 199.611C395.663 199.611 395.432 199.521 395.239 199.342C395.048 199.161 394.953 198.943 394.953 198.69C394.953 198.44 395.048 198.226 395.239 198.047C395.432 197.865 395.663 197.774 395.933 197.774C396.203 197.774 396.433 197.865 396.624 198.047C396.817 198.226 396.913 198.44 396.913 198.69C396.913 198.943 396.817 199.161 396.624 199.342C396.433 199.521 396.203 199.611 395.933 199.611ZM401.24 209.591C400.652 209.591 400.147 209.51 399.727 209.348C399.309 209.189 398.977 208.972 398.73 208.696C398.483 208.42 398.322 208.111 398.248 207.767L399.927 207.541C399.978 207.672 400.059 207.794 400.17 207.908C400.281 208.021 400.427 208.112 400.609 208.18C400.794 208.251 401.018 208.287 401.282 208.287C401.677 208.287 402.002 208.19 402.258 207.997C402.517 207.807 402.646 207.487 402.646 207.038V205.841H402.569C402.49 206.023 402.37 206.195 402.211 206.357C402.052 206.518 401.848 206.651 401.598 206.753C401.348 206.855 401.049 206.906 400.703 206.906C400.211 206.906 399.764 206.793 399.36 206.565C398.96 206.335 398.64 205.984 398.402 205.513C398.166 205.038 398.048 204.439 398.048 203.714C398.048 202.973 398.169 202.354 398.41 201.857C398.652 201.359 398.973 200.987 399.373 200.74C399.777 200.493 400.218 200.369 400.699 200.369C401.065 200.369 401.372 200.432 401.619 200.557C401.866 200.679 402.065 200.832 402.216 201.017C402.369 201.199 402.487 201.378 402.569 201.554H402.637V200.455H404.44V207.064C404.44 207.621 404.304 208.087 404.031 208.462C403.758 208.837 403.38 209.118 402.897 209.305C402.417 209.496 401.865 209.591 401.24 209.591ZM401.278 205.543C401.571 205.543 401.818 205.47 402.02 205.325C402.224 205.178 402.38 204.967 402.488 204.695C402.599 204.419 402.654 204.089 402.654 203.706C402.654 203.322 402.6 202.99 402.493 202.709C402.385 202.425 402.228 202.205 402.024 202.048C401.819 201.892 401.571 201.814 401.278 201.814C400.98 201.814 400.728 201.895 400.524 202.057C400.319 202.216 400.164 202.437 400.059 202.722C399.954 203.006 399.902 203.334 399.902 203.706C399.902 204.084 399.954 204.411 400.059 204.686C400.167 204.959 400.322 205.17 400.524 205.321C400.728 205.469 400.98 205.543 401.278 205.543ZM405.885 207V200.455H407.7V207H405.885ZM406.797 199.611C406.527 199.611 406.295 199.521 406.102 199.342C405.912 199.161 405.816 198.943 405.816 198.69C405.816 198.44 405.912 198.226 406.102 198.047C406.295 197.865 406.527 197.774 406.797 197.774C407.066 197.774 407.297 197.865 407.487 198.047C407.68 198.226 407.777 198.44 407.777 198.69C407.777 198.943 407.68 199.161 407.487 199.342C407.297 199.521 407.066 199.611 406.797 199.611ZM410.969 203.216V207H409.154V200.455H410.884V201.609H410.961C411.106 201.229 411.349 200.928 411.69 200.706C412.031 200.482 412.444 200.369 412.93 200.369C413.384 200.369 413.781 200.469 414.119 200.668C414.457 200.866 414.719 201.151 414.907 201.52C415.094 201.886 415.188 202.324 415.188 202.832V207H413.373V203.156C413.376 202.756 413.273 202.443 413.066 202.219C412.859 201.991 412.573 201.878 412.21 201.878C411.965 201.878 411.749 201.93 411.562 202.036C411.377 202.141 411.232 202.294 411.127 202.496C411.025 202.695 410.972 202.935 410.969 203.216ZM418.485 207.124C418.068 207.124 417.696 207.051 417.369 206.906C417.042 206.759 416.784 206.541 416.593 206.254C416.406 205.964 416.312 205.604 416.312 205.172C416.312 204.808 416.379 204.503 416.512 204.256C416.646 204.009 416.828 203.81 417.058 203.659C417.288 203.509 417.549 203.395 417.842 203.318C418.137 203.241 418.447 203.188 418.771 203.156C419.152 203.116 419.458 203.08 419.691 203.045C419.924 203.009 420.093 202.955 420.199 202.884C420.304 202.812 420.356 202.707 420.356 202.568V202.543C420.356 202.273 420.271 202.064 420.1 201.916C419.933 201.768 419.694 201.695 419.385 201.695C419.058 201.695 418.798 201.767 418.605 201.912C418.412 202.054 418.284 202.233 418.221 202.449L416.542 202.312C416.627 201.915 416.795 201.571 417.045 201.281C417.295 200.989 417.618 200.764 418.012 200.608C418.41 200.449 418.87 200.369 419.393 200.369C419.757 200.369 420.105 200.412 420.437 200.497C420.772 200.582 421.069 200.714 421.328 200.893C421.589 201.072 421.795 201.303 421.946 201.584C422.096 201.862 422.172 202.196 422.172 202.585V207H420.45V206.092H420.399C420.294 206.297 420.153 206.477 419.977 206.634C419.801 206.787 419.589 206.908 419.342 206.996C419.095 207.081 418.809 207.124 418.485 207.124ZM419.005 205.871C419.272 205.871 419.508 205.818 419.713 205.713C419.917 205.605 420.078 205.46 420.194 205.278C420.311 205.097 420.369 204.891 420.369 204.661V203.966C420.312 204.003 420.234 204.037 420.135 204.068C420.038 204.097 419.929 204.124 419.806 204.149C419.684 204.172 419.562 204.193 419.44 204.213C419.318 204.23 419.207 204.246 419.108 204.26C418.895 204.291 418.708 204.341 418.549 204.409C418.39 204.477 418.267 204.57 418.179 204.686C418.091 204.8 418.047 204.942 418.047 205.112C418.047 205.359 418.136 205.548 418.315 205.679C418.497 205.807 418.727 205.871 419.005 205.871ZM425.395 198.273V207H423.58V198.273H425.395ZM431.165 207H429.188L432.201 198.273H434.578L437.587 207H435.61L433.424 200.267H433.355L431.165 207ZM431.042 203.57H435.712V205.01H431.042V203.57ZM438.637 207V198.273H442.081C442.743 198.273 443.306 198.399 443.772 198.652C444.238 198.902 444.593 199.25 444.838 199.696C445.085 200.139 445.208 200.651 445.208 201.23C445.208 201.81 445.083 202.321 444.833 202.764C444.583 203.207 444.221 203.553 443.747 203.8C443.275 204.047 442.704 204.17 442.034 204.17H439.839V202.692H441.735C442.091 202.692 442.383 202.631 442.613 202.509C442.846 202.384 443.02 202.212 443.133 201.993C443.25 201.771 443.308 201.517 443.308 201.23C443.308 200.94 443.25 200.687 443.133 200.472C443.02 200.253 442.846 200.084 442.613 199.964C442.38 199.842 442.085 199.781 441.727 199.781H440.483V207H438.637ZM448.252 198.273V207H446.407V198.273H448.252Z" fill="black"/>
<path d="M388.778 323.636C388.778 324.588 388.598 325.398 388.237 326.065C387.879 326.733 387.391 327.243 386.771 327.595C386.155 327.945 385.462 328.119 384.692 328.119C383.916 328.119 383.22 327.943 382.604 327.591C381.987 327.239 381.5 326.729 381.142 326.061C380.784 325.393 380.605 324.585 380.605 323.636C380.605 322.685 380.784 321.875 381.142 321.207C381.5 320.54 381.987 320.031 382.604 319.682C383.22 319.33 383.916 319.153 384.692 319.153C385.462 319.153 386.155 319.33 386.771 319.682C387.391 320.031 387.879 320.54 388.237 321.207C388.598 321.875 388.778 322.685 388.778 323.636ZM386.908 323.636C386.908 323.02 386.815 322.5 386.631 322.077C386.449 321.653 386.192 321.332 385.859 321.114C385.527 320.895 385.138 320.786 384.692 320.786C384.246 320.786 383.857 320.895 383.524 321.114C383.192 321.332 382.933 321.653 382.749 322.077C382.567 322.5 382.476 323.02 382.476 323.636C382.476 324.253 382.567 324.773 382.749 325.196C382.933 325.619 383.192 325.94 383.524 326.159C383.857 326.378 384.246 326.487 384.692 326.487C385.138 326.487 385.527 326.378 385.859 326.159C386.192 325.94 386.449 325.619 386.631 325.196C386.815 324.773 386.908 324.253 386.908 323.636ZM390.111 328V321.455H391.871V322.597H391.939C392.059 322.19 392.259 321.884 392.54 321.676C392.821 321.466 393.145 321.361 393.512 321.361C393.603 321.361 393.701 321.366 393.806 321.378C393.911 321.389 394.003 321.405 394.083 321.425V323.036C393.998 323.01 393.88 322.987 393.729 322.967C393.578 322.947 393.441 322.938 393.316 322.938C393.049 322.938 392.81 322.996 392.6 323.112C392.392 323.226 392.228 323.385 392.105 323.589C391.986 323.794 391.926 324.03 391.926 324.297V328H390.111ZM395.021 328V321.455H396.837V328H395.021ZM395.933 320.611C395.663 320.611 395.432 320.521 395.239 320.342C395.048 320.161 394.953 319.943 394.953 319.69C394.953 319.44 395.048 319.226 395.239 319.047C395.432 318.865 395.663 318.774 395.933 318.774C396.203 318.774 396.433 318.865 396.624 319.047C396.817 319.226 396.913 319.44 396.913 319.69C396.913 319.943 396.817 320.161 396.624 320.342C396.433 320.521 396.203 320.611 395.933 320.611ZM401.24 330.591C400.652 330.591 400.147 330.51 399.727 330.348C399.309 330.189 398.977 329.972 398.73 329.696C398.483 329.42 398.322 329.111 398.248 328.767L399.927 328.541C399.978 328.672 400.059 328.794 400.17 328.908C400.281 329.021 400.427 329.112 400.609 329.18C400.794 329.251 401.018 329.287 401.282 329.287C401.677 329.287 402.002 329.19 402.258 328.997C402.517 328.807 402.646 328.487 402.646 328.038V326.841H402.569C402.49 327.023 402.37 327.195 402.211 327.357C402.052 327.518 401.848 327.651 401.598 327.753C401.348 327.855 401.049 327.906 400.703 327.906C400.211 327.906 399.764 327.793 399.36 327.565C398.96 327.335 398.64 326.984 398.402 326.513C398.166 326.038 398.048 325.439 398.048 324.714C398.048 323.973 398.169 323.354 398.41 322.857C398.652 322.359 398.973 321.987 399.373 321.74C399.777 321.493 400.218 321.369 400.699 321.369C401.065 321.369 401.372 321.432 401.619 321.557C401.866 321.679 402.065 321.832 402.216 322.017C402.369 322.199 402.487 322.378 402.569 322.554H402.637V321.455H404.44V328.064C404.44 328.621 404.304 329.087 404.031 329.462C403.758 329.837 403.38 330.118 402.897 330.305C402.417 330.496 401.865 330.591 401.24 330.591ZM401.278 326.543C401.571 326.543 401.818 326.47 402.02 326.325C402.224 326.178 402.38 325.967 402.488 325.695C402.599 325.419 402.654 325.089 402.654 324.706C402.654 324.322 402.6 323.99 402.493 323.709C402.385 323.425 402.228 323.205 402.024 323.048C401.819 322.892 401.571 322.814 401.278 322.814C400.98 322.814 400.728 322.895 400.524 323.057C400.319 323.216 400.164 323.437 400.059 323.722C399.954 324.006 399.902 324.334 399.902 324.706C399.902 325.084 399.954 325.411 400.059 325.686C400.167 325.959 400.322 326.17 400.524 326.321C400.728 326.469 400.98 326.543 401.278 326.543ZM405.885 328V321.455H407.7V328H405.885ZM406.797 320.611C406.527 320.611 406.295 320.521 406.102 320.342C405.912 320.161 405.816 319.943 405.816 319.69C405.816 319.44 405.912 319.226 406.102 319.047C406.295 318.865 406.527 318.774 406.797 318.774C407.066 318.774 407.297 318.865 407.487 319.047C407.68 319.226 407.777 319.44 407.777 319.69C407.777 319.943 407.68 320.161 407.487 320.342C407.297 320.521 407.066 320.611 406.797 320.611ZM410.969 324.216V328H409.154V321.455H410.884V322.609H410.961C411.106 322.229 411.349 321.928 411.69 321.706C412.031 321.482 412.444 321.369 412.93 321.369C413.384 321.369 413.781 321.469 414.119 321.668C414.457 321.866 414.719 322.151 414.907 322.52C415.094 322.886 415.188 323.324 415.188 323.832V328H413.373V324.156C413.376 323.756 413.273 323.443 413.066 323.219C412.859 322.991 412.573 322.878 412.21 322.878C411.965 322.878 411.749 322.93 411.562 323.036C411.377 323.141 411.232 323.294 411.127 323.496C411.025 323.695 410.972 323.935 410.969 324.216ZM418.485 328.124C418.068 328.124 417.696 328.051 417.369 327.906C417.042 327.759 416.784 327.541 416.593 327.254C416.406 326.964 416.312 326.604 416.312 326.172C416.312 325.808 416.379 325.503 416.512 325.256C416.646 325.009 416.828 324.81 417.058 324.659C417.288 324.509 417.549 324.395 417.842 324.318C418.137 324.241 418.447 324.188 418.771 324.156C419.152 324.116 419.458 324.08 419.691 324.045C419.924 324.009 420.093 323.955 420.199 323.884C420.304 323.812 420.356 323.707 420.356 323.568V323.543C420.356 323.273 420.271 323.064 420.1 322.916C419.933 322.768 419.694 322.695 419.385 322.695C419.058 322.695 418.798 322.767 418.605 322.912C418.412 323.054 418.284 323.233 418.221 323.449L416.542 323.312C416.627 322.915 416.795 322.571 417.045 322.281C417.295 321.989 417.618 321.764 418.012 321.608C418.41 321.449 418.87 321.369 419.393 321.369C419.757 321.369 420.105 321.412 420.437 321.497C420.772 321.582 421.069 321.714 421.328 321.893C421.589 322.072 421.795 322.303 421.946 322.584C422.096 322.862 422.172 323.196 422.172 323.585V328H420.45V327.092H420.399C420.294 327.297 420.153 327.477 419.977 327.634C419.801 327.787 419.589 327.908 419.342 327.996C419.095 328.081 418.809 328.124 418.485 328.124ZM419.005 326.871C419.272 326.871 419.508 326.818 419.713 326.713C419.917 326.605 420.078 326.46 420.194 326.278C420.311 326.097 420.369 325.891 420.369 325.661V324.966C420.312 325.003 420.234 325.037 420.135 325.068C420.038 325.097 419.929 325.124 419.806 325.149C419.684 325.172 419.562 325.193 419.44 325.213C419.318 325.23 419.207 325.246 419.108 325.26C418.895 325.291 418.708 325.341 418.549 325.409C418.39 325.477 418.267 325.57 418.179 325.686C418.091 325.8 418.047 325.942 418.047 326.112C418.047 326.359 418.136 326.548 418.315 326.679C418.497 326.807 418.727 326.871 419.005 326.871ZM425.395 319.273V328H423.58V319.273H425.395ZM431.165 328H429.188L432.201 319.273H434.578L437.587 328H435.61L433.424 321.267H433.355L431.165 328ZM431.042 324.57H435.712V326.01H431.042V324.57ZM438.637 328V319.273H442.081C442.743 319.273 443.306 319.399 443.772 319.652C444.238 319.902 444.593 320.25 444.838 320.696C445.085 321.139 445.208 321.651 445.208 322.23C445.208 322.81 445.083 323.321 444.833 323.764C444.583 324.207 444.221 324.553 443.747 324.8C443.275 325.047 442.704 325.17 442.034 325.17H439.839V323.692H441.735C442.091 323.692 442.383 323.631 442.613 323.509C442.846 323.384 443.02 323.212 443.133 322.993C443.25 322.771 443.308 322.517 443.308 322.23C443.308 321.94 443.25 321.687 443.133 321.472C443.02 321.253 442.846 321.084 442.613 320.964C442.38 320.842 442.085 320.781 441.727 320.781H440.483V328H438.637ZM448.252 319.273V328H446.407V319.273H448.252Z" fill="black"/>
<path d="M388.778 80.6364C388.778 81.5881 388.598 82.3977 388.237 83.0653C387.879 83.733 387.391 84.2429 386.771 84.5952C386.155 84.9446 385.462 85.1193 384.692 85.1193C383.916 85.1193 383.22 84.9432 382.604 84.5909C381.987 84.2386 381.5 83.7287 381.142 83.0611C380.784 82.3935 380.605 81.5852 380.605 80.6364C380.605 79.6847 380.784 78.875 381.142 78.2074C381.5 77.5398 381.987 77.0312 382.604 76.6818C383.22 76.3295 383.916 76.1534 384.692 76.1534C385.462 76.1534 386.155 76.3295 386.771 76.6818C387.391 77.0312 387.879 77.5398 388.237 78.2074C388.598 78.875 388.778 79.6847 388.778 80.6364ZM386.908 80.6364C386.908 80.0199 386.815 79.5 386.631 79.0767C386.449 78.6534 386.192 78.3324 385.859 78.1136C385.527 77.8949 385.138 77.7855 384.692 77.7855C384.246 77.7855 383.857 77.8949 383.524 78.1136C383.192 78.3324 382.933 78.6534 382.749 79.0767C382.567 79.5 382.476 80.0199 382.476 80.6364C382.476 81.2528 382.567 81.7727 382.749 82.196C382.933 82.6193 383.192 82.9403 383.524 83.1591C383.857 83.3778 384.246 83.4872 384.692 83.4872C385.138 83.4872 385.527 83.3778 385.859 83.1591C386.192 82.9403 386.449 82.6193 386.631 82.196C386.815 81.7727 386.908 81.2528 386.908 80.6364ZM390.111 85V78.4545H391.871V79.5966H391.939C392.059 79.1903 392.259 78.8835 392.54 78.6761C392.821 78.4659 393.145 78.3608 393.512 78.3608C393.603 78.3608 393.701 78.3665 393.806 78.3778C393.911 78.3892 394.003 78.4048 394.083 78.4247V80.0355C393.998 80.0099 393.88 79.9872 393.729 79.9673C393.578 79.9474 393.441 79.9375 393.316 79.9375C393.049 79.9375 392.81 79.9957 392.6 80.1122C392.392 80.2259 392.228 80.3849 392.105 80.5895C391.986 80.794 391.926 81.0298 391.926 81.2969V85H390.111ZM395.021 85V78.4545H396.837V85H395.021ZM395.933 77.6108C395.663 77.6108 395.432 77.5213 395.239 77.3423C395.048 77.1605 394.953 76.9432 394.953 76.6903C394.953 76.4403 395.048 76.2259 395.239 76.0469C395.432 75.8651 395.663 75.7741 395.933 75.7741C396.203 75.7741 396.433 75.8651 396.624 76.0469C396.817 76.2259 396.913 76.4403 396.913 76.6903C396.913 76.9432 396.817 77.1605 396.624 77.3423C396.433 77.5213 396.203 77.6108 395.933 77.6108ZM401.24 87.5909C400.652 87.5909 400.147 87.5099 399.727 87.348C399.309 87.1889 398.977 86.9716 398.73 86.696C398.483 86.4205 398.322 86.1108 398.248 85.767L399.927 85.5412C399.978 85.6719 400.059 85.794 400.17 85.9077C400.281 86.0213 400.427 86.1122 400.609 86.1804C400.794 86.2514 401.018 86.2869 401.282 86.2869C401.677 86.2869 402.002 86.1903 402.258 85.9972C402.517 85.8068 402.646 85.4872 402.646 85.0384V83.8409H402.569C402.49 84.0227 402.37 84.1946 402.211 84.3565C402.052 84.5185 401.848 84.6506 401.598 84.7528C401.348 84.8551 401.049 84.9062 400.703 84.9062C400.211 84.9062 399.764 84.7926 399.36 84.5653C398.96 84.3352 398.64 83.9844 398.402 83.5128C398.166 83.0384 398.048 82.4389 398.048 81.7145C398.048 80.973 398.169 80.3537 398.41 79.8565C398.652 79.3594 398.973 78.9872 399.373 78.7401C399.777 78.4929 400.218 78.3693 400.699 78.3693C401.065 78.3693 401.372 78.4318 401.619 78.5568C401.866 78.679 402.065 78.8324 402.216 79.017C402.369 79.1989 402.487 79.3778 402.569 79.554H402.637V78.4545H404.44V85.0639C404.44 85.6207 404.304 86.0866 404.031 86.4616C403.758 86.8366 403.38 87.1179 402.897 87.3054C402.417 87.4957 401.865 87.5909 401.24 87.5909ZM401.278 83.5426C401.571 83.5426 401.818 83.4702 402.02 83.3253C402.224 83.1776 402.38 82.9673 402.488 82.6946C402.599 82.419 402.654 82.0895 402.654 81.706C402.654 81.3224 402.6 80.9901 402.493 80.7088C402.385 80.4247 402.228 80.2045 402.024 80.0483C401.819 79.892 401.571 79.8139 401.278 79.8139C400.98 79.8139 400.728 79.8949 400.524 80.0568C400.319 80.2159 400.164 80.4375 400.059 80.7216C399.954 81.0057 399.902 81.3338 399.902 81.706C399.902 82.0838 399.954 82.4105 400.059 82.6861C400.167 82.9588 400.322 83.1705 400.524 83.321C400.728 83.4687 400.98 83.5426 401.278 83.5426ZM405.885 85V78.4545H407.7V85H405.885ZM406.797 77.6108C406.527 77.6108 406.295 77.5213 406.102 77.3423C405.912 77.1605 405.816 76.9432 405.816 76.6903C405.816 76.4403 405.912 76.2259 406.102 76.0469C406.295 75.8651 406.527 75.7741 406.797 75.7741C407.066 75.7741 407.297 75.8651 407.487 76.0469C407.68 76.2259 407.777 76.4403 407.777 76.6903C407.777 76.9432 407.68 77.1605 407.487 77.3423C407.297 77.5213 407.066 77.6108 406.797 77.6108ZM410.969 81.2159V85H409.154V78.4545H410.884V79.6094H410.961C411.106 79.2287 411.349 78.9276 411.69 78.706C412.031 78.4815 412.444 78.3693 412.93 78.3693C413.384 78.3693 413.781 78.4688 414.119 78.6676C414.457 78.8665 414.719 79.1506 414.907 79.5199C415.094 79.8864 415.188 80.3239 415.188 80.8324V85H413.373V81.1562C413.376 80.7557 413.273 80.4432 413.066 80.2188C412.859 79.9915 412.573 79.8778 412.21 79.8778C411.965 79.8778 411.749 79.9304 411.562 80.0355C411.377 80.1406 411.232 80.294 411.127 80.4957C411.025 80.6946 410.972 80.9347 410.969 81.2159ZM418.485 85.1236C418.068 85.1236 417.696 85.0511 417.369 84.9062C417.042 84.7585 416.784 84.5412 416.593 84.2543C416.406 83.9645 416.312 83.6037 416.312 83.1719C416.312 82.8082 416.379 82.5028 416.512 82.2557C416.646 82.0085 416.828 81.8097 417.058 81.6591C417.288 81.5085 417.549 81.3949 417.842 81.3182C418.137 81.2415 418.447 81.1875 418.771 81.1562C419.152 81.1165 419.458 81.0795 419.691 81.0455C419.924 81.0085 420.093 80.9545 420.199 80.8835C420.304 80.8125 420.356 80.7074 420.356 80.5682V80.5426C420.356 80.2727 420.271 80.0639 420.1 79.9162C419.933 79.7685 419.694 79.6946 419.385 79.6946C419.058 79.6946 418.798 79.767 418.605 79.9119C418.412 80.054 418.284 80.233 418.221 80.4489L416.542 80.3125C416.627 79.9148 416.795 79.571 417.045 79.2812C417.295 78.9886 417.618 78.7642 418.012 78.608C418.41 78.4489 418.87 78.3693 419.393 78.3693C419.757 78.3693 420.105 78.4119 420.437 78.4972C420.772 78.5824 421.069 78.7145 421.328 78.8935C421.589 79.0724 421.795 79.3026 421.946 79.5838C422.096 79.8622 422.172 80.196 422.172 80.5852V85H420.45V84.0923H420.399C420.294 84.2969 420.153 84.4773 419.977 84.6335C419.801 84.7869 419.589 84.9077 419.342 84.9957C419.095 85.081 418.809 85.1236 418.485 85.1236ZM419.005 83.8707C419.272 83.8707 419.508 83.8182 419.713 83.7131C419.917 83.6051 420.078 83.4602 420.194 83.2784C420.311 83.0966 420.369 82.8906 420.369 82.6605V81.9659C420.312 82.0028 420.234 82.0369 420.135 82.0682C420.038 82.0966 419.929 82.1236 419.806 82.1491C419.684 82.1719 419.562 82.1932 419.44 82.2131C419.318 82.2301 419.207 82.2457 419.108 82.2599C418.895 82.2912 418.708 82.3409 418.549 82.4091C418.39 82.4773 418.267 82.5696 418.179 82.6861C418.091 82.7997 418.047 82.9418 418.047 83.1122C418.047 83.3594 418.136 83.5483 418.315 83.679C418.497 83.8068 418.727 83.8707 419.005 83.8707ZM425.395 76.2727V85H423.58V76.2727H425.395ZM431.165 85H429.188L432.201 76.2727H434.578L437.587 85H435.61L433.424 78.267H433.355L431.165 85ZM431.042 81.5696H435.712V83.0099H431.042V81.5696ZM438.637 85V76.2727H442.081C442.743 76.2727 443.306 76.3991 443.772 76.652C444.238 76.902 444.593 77.25 444.838 77.696C445.085 78.1392 445.208 78.6506 445.208 79.2301C445.208 79.8097 445.083 80.321 444.833 80.7642C444.583 81.2074 444.221 81.5526 443.747 81.7997C443.275 82.0469 442.704 82.1705 442.034 82.1705H439.839V80.6918H441.735C442.091 80.6918 442.383 80.6307 442.613 80.5085C442.846 80.3835 443.02 80.2116 443.133 79.9929C443.25 79.7713 443.308 79.517 443.308 79.2301C443.308 78.9403 443.25 78.6875 443.133 78.4716C443.02 78.2528 442.846 78.0838 442.613 77.9645C442.38 77.8423 442.085 77.7812 441.727 77.7812H440.483V85H438.637ZM448.252 76.2727V85H446.407V76.2727H448.252Z" fill="black"/>
<path d="M229.459 201.328H227.592C227.558 201.087 227.489 200.872 227.384 200.685C227.278 200.494 227.143 200.332 226.979 200.199C226.814 200.065 226.624 199.963 226.408 199.892C226.195 199.821 225.963 199.786 225.713 199.786C225.261 199.786 224.868 199.898 224.533 200.122C224.197 200.344 223.938 200.668 223.753 201.094C223.568 201.517 223.476 202.031 223.476 202.636C223.476 203.259 223.568 203.781 223.753 204.205C223.94 204.628 224.202 204.947 224.537 205.163C224.872 205.379 225.26 205.487 225.7 205.487C225.947 205.487 226.176 205.455 226.386 205.389C226.599 205.324 226.788 205.229 226.953 205.104C227.118 204.976 227.254 204.821 227.362 204.639C227.473 204.457 227.55 204.25 227.592 204.017L229.459 204.026C229.411 204.426 229.29 204.812 229.097 205.185C228.906 205.554 228.649 205.885 228.325 206.178C228.004 206.467 227.621 206.697 227.175 206.868C226.732 207.036 226.23 207.119 225.67 207.119C224.892 207.119 224.196 206.943 223.582 206.591C222.972 206.239 222.489 205.729 222.134 205.061C221.781 204.393 221.605 203.585 221.605 202.636C221.605 201.685 221.784 200.875 222.142 200.207C222.5 199.54 222.986 199.031 223.599 198.682C224.213 198.33 224.903 198.153 225.67 198.153C226.176 198.153 226.645 198.224 227.077 198.366C227.511 198.509 227.896 198.716 228.232 198.989C228.567 199.259 228.839 199.589 229.05 199.982C229.263 200.374 229.399 200.822 229.459 201.328ZM232.563 198.273V207H230.748V198.273H232.563ZM234.017 207V200.455H235.833V207H234.017ZM234.929 199.611C234.659 199.611 234.428 199.521 234.235 199.342C234.044 199.161 233.949 198.943 233.949 198.69C233.949 198.44 234.044 198.226 234.235 198.047C234.428 197.865 234.659 197.774 234.929 197.774C235.199 197.774 235.429 197.865 235.62 198.047C235.813 198.226 235.909 198.44 235.909 198.69C235.909 198.943 235.813 199.161 235.62 199.342C235.429 199.521 235.199 199.611 234.929 199.611ZM240.27 207.128C239.597 207.128 239.017 206.991 238.531 206.719C238.048 206.443 237.676 206.054 237.415 205.551C237.153 205.045 237.023 204.447 237.023 203.757C237.023 203.084 237.153 202.493 237.415 201.984C237.676 201.476 238.044 201.08 238.518 200.795C238.996 200.511 239.555 200.369 240.197 200.369C240.629 200.369 241.031 200.439 241.403 200.578C241.778 200.714 242.105 200.92 242.384 201.196C242.665 201.472 242.884 201.818 243.04 202.236C243.196 202.651 243.274 203.136 243.274 203.693V204.192H237.747V203.067H241.565C241.565 202.805 241.509 202.574 241.395 202.372C241.281 202.17 241.124 202.013 240.922 201.899C240.723 201.783 240.491 201.724 240.227 201.724C239.952 201.724 239.707 201.788 239.494 201.916C239.284 202.041 239.119 202.21 239 202.423C238.881 202.634 238.82 202.868 238.817 203.126V204.196C238.817 204.52 238.876 204.8 238.996 205.036C239.118 205.271 239.29 205.453 239.511 205.581C239.733 205.709 239.996 205.773 240.3 205.773C240.501 205.773 240.686 205.744 240.854 205.688C241.021 205.631 241.165 205.545 241.284 205.432C241.403 205.318 241.494 205.179 241.557 205.014L243.236 205.125C243.151 205.528 242.976 205.881 242.712 206.182C242.45 206.48 242.112 206.713 241.697 206.881C241.286 207.045 240.81 207.128 240.27 207.128ZM246.274 203.216V207H244.459V200.455H246.189V201.609H246.266C246.411 201.229 246.653 200.928 246.994 200.706C247.335 200.482 247.749 200.369 248.234 200.369C248.689 200.369 249.085 200.469 249.423 200.668C249.761 200.866 250.024 201.151 250.212 201.52C250.399 201.886 250.493 202.324 250.493 202.832V207H248.678V203.156C248.68 202.756 248.578 202.443 248.371 202.219C248.163 201.991 247.878 201.878 247.514 201.878C247.27 201.878 247.054 201.93 246.866 202.036C246.682 202.141 246.537 202.294 246.432 202.496C246.33 202.695 246.277 202.935 246.274 203.216ZM255.405 200.455V201.818H251.463V200.455H255.405ZM252.358 198.886H254.174V204.989C254.174 205.156 254.199 205.287 254.25 205.381C254.301 205.472 254.373 205.536 254.463 205.572C254.557 205.609 254.665 205.628 254.787 205.628C254.873 205.628 254.958 205.621 255.043 205.607C255.128 205.589 255.194 205.577 255.239 205.568L255.525 206.919C255.434 206.947 255.306 206.98 255.141 207.017C254.976 207.057 254.776 207.081 254.54 207.089C254.103 207.107 253.719 207.048 253.39 206.915C253.063 206.781 252.809 206.574 252.627 206.293C252.445 206.011 252.355 205.656 252.358 205.227V198.886ZM264.134 200.783C264.099 200.439 263.953 200.172 263.695 199.982C263.436 199.791 263.085 199.696 262.642 199.696C262.341 199.696 262.087 199.739 261.879 199.824C261.672 199.906 261.513 200.021 261.402 200.169C261.294 200.317 261.24 200.484 261.24 200.672C261.234 200.828 261.267 200.964 261.338 201.081C261.412 201.197 261.513 201.298 261.641 201.384C261.768 201.466 261.916 201.538 262.084 201.601C262.251 201.661 262.43 201.712 262.621 201.754L263.405 201.942C263.786 202.027 264.135 202.141 264.453 202.283C264.771 202.425 265.047 202.599 265.28 202.807C265.513 203.014 265.693 203.259 265.821 203.54C265.952 203.821 266.018 204.143 266.021 204.507C266.018 205.041 265.882 205.504 265.612 205.896C265.345 206.286 264.959 206.588 264.453 206.804C263.95 207.017 263.344 207.124 262.634 207.124C261.929 207.124 261.315 207.016 260.793 206.8C260.273 206.584 259.866 206.264 259.574 205.841C259.284 205.415 259.132 204.888 259.118 204.26H260.903C260.923 204.553 261.007 204.797 261.155 204.993C261.305 205.186 261.506 205.332 261.756 205.432C262.009 205.528 262.294 205.577 262.612 205.577C262.925 205.577 263.196 205.531 263.426 205.44C263.659 205.349 263.839 205.223 263.967 205.061C264.095 204.899 264.159 204.713 264.159 204.503C264.159 204.307 264.101 204.142 263.984 204.009C263.871 203.875 263.703 203.761 263.482 203.668C263.263 203.574 262.994 203.489 262.676 203.412L261.726 203.173C260.99 202.994 260.409 202.714 259.983 202.334C259.557 201.953 259.345 201.44 259.348 200.795C259.345 200.267 259.486 199.805 259.77 199.411C260.057 199.016 260.45 198.707 260.95 198.486C261.45 198.264 262.018 198.153 262.655 198.153C263.303 198.153 263.868 198.264 264.351 198.486C264.837 198.707 265.214 199.016 265.484 199.411C265.754 199.805 265.893 200.263 265.902 200.783H264.134ZM270.356 207H267.262V198.273H270.382C271.26 198.273 272.015 198.447 272.649 198.797C273.282 199.143 273.77 199.642 274.11 200.293C274.454 200.943 274.626 201.722 274.626 202.628C274.626 203.537 274.454 204.318 274.11 204.972C273.77 205.625 273.279 206.126 272.64 206.476C272.004 206.825 271.243 207 270.356 207ZM269.108 205.419H270.279C270.825 205.419 271.284 205.322 271.656 205.129C272.031 204.933 272.312 204.631 272.5 204.222C272.69 203.81 272.785 203.278 272.785 202.628C272.785 201.983 272.69 201.456 272.5 201.047C272.312 200.638 272.032 200.337 271.66 200.143C271.288 199.95 270.829 199.854 270.284 199.854H269.108V205.419ZM275.993 207V198.273H277.838V202.121H277.953L281.094 198.273H283.305L280.067 202.18L283.344 207H281.136L278.746 203.412L277.838 204.52V207H275.993Z" fill="black"/>
<path d="M346.949 73.3142C347.123 72.7899 346.839 72.2242 346.314 72.0506L337.77 69.2228C337.246 69.0493 336.68 69.3337 336.506 69.858C336.333 70.3823 336.617 70.948 337.142 71.1216L344.736 73.6352L342.223 81.23C342.049 81.7543 342.334 82.32 342.858 82.4936C343.382 82.6671 343.948 82.3827 344.122 81.8584L346.949 73.3142ZM159.449 167.893L346.449 73.8935L345.551 72.1065L158.551 166.107L159.449 167.893Z" fill="black"/>
<path d="M346.949 73.3142C347.123 72.7899 346.839 72.2242 346.314 72.0506L337.77 69.2228C337.246 69.0493 336.68 69.3337 336.506 69.858C336.333 70.3823 336.617 70.948 337.142 71.1216L344.736 73.6352L342.223 81.23C342.049 81.7543 342.334 82.32 342.858 82.4936C343.382 82.6671 343.948 82.3827 344.122 81.8584L346.949 73.3142ZM159.449 167.893L346.449 73.8935L345.551 72.1065L158.551 166.107L159.449 167.893Z" fill="black"/>
<path d="M346.357 331.934C346.873 331.737 347.131 331.159 346.934 330.643L343.72 322.236C343.523 321.721 342.944 321.462 342.429 321.659C341.913 321.857 341.654 322.435 341.852 322.951L344.709 330.423L337.236 333.28C336.721 333.477 336.462 334.056 336.659 334.571C336.857 335.087 337.435 335.346 337.951 335.148L346.357 331.934ZM157.592 247.913L345.592 331.913L346.408 330.087L158.408 246.087L157.592 247.913Z" fill="black"/>
<path d="M346.707 210.707C347.098 210.317 347.098 209.683 346.707 209.293L340.343 202.929C339.953 202.538 339.319 202.538 338.929 202.929C338.538 203.319 338.538 203.953 338.929 204.343L344.586 210L338.929 215.657C338.538 216.047 338.538 216.681 338.929 217.071C339.319 217.462 339.953 217.462 340.343 217.071L346.707 210.707ZM158 211H346V209H158V211Z" fill="black"/>
</svg>
