<svg width="431" height="106" viewBox="0 0 431 106" fill="none" xmlns="http://www.w3.org/2000/svg">
<path d="M260.5 75.5H190.53C183.863 75.5 177.197 75.5 170.53 75.5H136.87" stroke="black" stroke-miterlimit="10"/>
<path d="M131.62 75.5L138.62 72L136.87 75.5L138.62 79L131.62 75.5Z" fill="black" stroke="black" stroke-miterlimit="10"/>
<path d="M152.281 85.1099H153.36V88.3701H157.464V85.1099H158.543V93H157.464V89.3101H153.36V93H152.281V85.1099ZM165.945 85.1099V86.0498H163.286V93H162.201V86.0498H159.542V85.1099H165.945ZM172.669 85.1099V86.0498H170.011V93H168.926V86.0498H166.267V85.1099H172.669ZM173.754 85.1099H177.305C178.007 85.1099 178.572 85.3086 179.002 85.7061C179.432 86.0999 179.646 86.6549 179.646 87.3711C179.646 87.987 179.455 88.5241 179.072 88.9824C178.689 89.4372 178.1 89.6646 177.305 89.6646H174.823V93H173.754V85.1099ZM178.567 87.3765C178.567 86.7964 178.352 86.4025 177.922 86.1948C177.686 86.0838 177.362 86.0283 176.95 86.0283H174.823V88.7622H176.95C177.43 88.7622 177.819 88.6602 178.116 88.4561C178.417 88.252 178.567 87.8921 178.567 87.3765ZM187.526 88.7246C188.027 88.7246 188.423 88.6243 188.713 88.4238C189.007 88.2233 189.153 87.8617 189.153 87.3389C189.153 86.7767 188.949 86.3936 188.541 86.1895C188.323 86.082 188.031 86.0283 187.666 86.0283H185.055V88.7246H187.526ZM183.986 85.1099H187.639C188.24 85.1099 188.736 85.1976 189.126 85.373C189.868 85.7096 190.238 86.3309 190.238 87.2368C190.238 87.7095 190.14 88.0962 189.943 88.397C189.75 88.6978 189.477 88.9395 189.126 89.1221C189.434 89.2474 189.665 89.4121 189.819 89.6162C189.977 89.8203 190.065 90.1515 190.083 90.6099L190.12 91.668C190.131 91.9688 190.156 92.1925 190.195 92.3394C190.26 92.59 190.374 92.7511 190.539 92.8228V93H189.229C189.193 92.932 189.164 92.8442 189.143 92.7368C189.121 92.6294 189.103 92.4217 189.089 92.1138L189.024 90.7979C188.999 90.2822 188.808 89.9367 188.45 89.7612C188.246 89.6646 187.925 89.6162 187.488 89.6162H185.055V93H183.986V85.1099ZM194.073 87.1187C194.481 87.1187 194.877 87.2153 195.26 87.4087C195.643 87.5985 195.935 87.8455 196.136 88.1499C196.329 88.4399 196.458 88.7783 196.522 89.165C196.58 89.43 196.608 89.8525 196.608 90.4326H192.392C192.41 91.0163 192.548 91.4854 192.806 91.8398C193.063 92.1908 193.463 92.3662 194.003 92.3662C194.508 92.3662 194.911 92.1997 195.212 91.8667C195.384 91.6733 195.506 91.4495 195.577 91.1953H196.528C196.503 91.4066 196.419 91.6429 196.275 91.9043C196.136 92.1621 195.978 92.3734 195.803 92.5381C195.509 92.8245 195.146 93.0179 194.712 93.1182C194.48 93.1755 194.216 93.2041 193.923 93.2041C193.207 93.2041 192.6 92.9445 192.102 92.4253C191.604 91.9025 191.355 91.172 191.355 90.2339C191.355 89.3101 191.606 88.5599 192.107 87.9834C192.609 87.4069 193.264 87.1187 194.073 87.1187ZM195.615 89.6646C195.575 89.2456 195.484 88.9108 195.341 88.6602C195.076 88.1947 194.634 87.9619 194.014 87.9619C193.57 87.9619 193.198 88.123 192.897 88.4453C192.596 88.764 192.437 89.1704 192.419 89.6646H195.615ZM198.375 91.1953C198.404 91.5176 198.485 91.7646 198.617 91.9365C198.861 92.248 199.283 92.4038 199.885 92.4038C200.243 92.4038 200.558 92.3268 200.83 92.1729C201.102 92.0153 201.238 91.7736 201.238 91.4478C201.238 91.2007 201.129 91.0127 200.911 90.8838C200.771 90.805 200.495 90.7137 200.083 90.6099L199.315 90.4165C198.825 90.2948 198.463 90.1587 198.23 90.0083C197.815 89.7469 197.607 89.3853 197.607 88.9233C197.607 88.3791 197.803 87.9386 198.193 87.6021C198.587 87.2655 199.115 87.0972 199.777 87.0972C200.644 87.0972 201.269 87.3514 201.652 87.8599C201.892 88.1821 202.008 88.5295 202.001 88.9019H201.088C201.07 88.6834 200.993 88.4847 200.857 88.3057C200.635 88.0514 200.25 87.9243 199.702 87.9243C199.337 87.9243 199.059 87.9941 198.87 88.1338C198.683 88.2734 198.59 88.4578 198.59 88.687C198.59 88.9377 198.714 89.1382 198.961 89.2886C199.104 89.3781 199.315 89.4569 199.595 89.5249L200.234 89.6807C200.929 89.849 201.394 90.0119 201.63 90.1694C202.006 90.4165 202.194 90.805 202.194 91.335C202.194 91.847 201.999 92.2892 201.609 92.6616C201.222 93.034 200.631 93.2202 199.836 93.2202C198.981 93.2202 198.374 93.0269 198.016 92.6401C197.661 92.2498 197.471 91.7682 197.446 91.1953H198.375ZM205.729 92.3501C206.18 92.3501 206.554 92.1621 206.851 91.7861C207.152 91.4066 207.302 90.8408 207.302 90.0889C207.302 89.6305 207.236 89.2367 207.104 88.9072C206.853 88.2734 206.395 87.9565 205.729 87.9565C205.059 87.9565 204.601 88.2913 204.354 88.9609C204.221 89.319 204.155 89.7738 204.155 90.3252C204.155 90.7692 204.221 91.147 204.354 91.4585C204.604 92.0529 205.062 92.3501 205.729 92.3501ZM203.226 87.2744H204.166V88.0371C204.359 87.7757 204.57 87.5734 204.799 87.4302C205.125 87.2153 205.508 87.1079 205.949 87.1079C206.6 87.1079 207.154 87.3586 207.608 87.8599C208.063 88.3576 208.291 89.0701 208.291 89.9976C208.291 91.2508 207.963 92.146 207.308 92.6831C206.892 93.0233 206.409 93.1934 205.857 93.1934C205.424 93.1934 205.061 93.0985 204.767 92.9087C204.595 92.8013 204.404 92.6169 204.192 92.3555V95.2935H203.226V87.2744ZM211.707 92.377C212.347 92.377 212.786 92.1353 213.022 91.6519C213.262 91.1649 213.382 90.6242 213.382 90.0298C213.382 89.4927 213.296 89.0558 213.125 88.7192C212.852 88.1893 212.383 87.9243 211.717 87.9243C211.126 87.9243 210.697 88.1499 210.428 88.6011C210.16 89.0522 210.025 89.5965 210.025 90.2339C210.025 90.8462 210.16 91.3564 210.428 91.7646C210.697 92.1729 211.123 92.377 211.707 92.377ZM211.744 87.0811C212.485 87.0811 213.112 87.3281 213.624 87.8223C214.136 88.3164 214.392 89.0433 214.392 90.0029C214.392 90.9303 214.167 91.6966 213.715 92.3018C213.264 92.9069 212.564 93.2095 211.615 93.2095C210.824 93.2095 210.195 92.9427 209.73 92.4092C209.264 91.8721 209.032 91.1523 209.032 90.25C209.032 89.2832 209.277 88.5133 209.768 87.9404C210.258 87.3675 210.917 87.0811 211.744 87.0811ZM215.547 87.2476H216.465V88.064C216.737 87.7274 217.026 87.4857 217.33 87.3389C217.634 87.1921 217.973 87.1187 218.345 87.1187C219.162 87.1187 219.713 87.4033 220 87.9727C220.157 88.2842 220.236 88.73 220.236 89.3101V93H219.253V89.3745C219.253 89.0236 219.201 88.7407 219.097 88.5259C218.925 88.1678 218.614 87.9888 218.163 87.9888C217.933 87.9888 217.745 88.012 217.599 88.0586C217.334 88.1374 217.101 88.2949 216.9 88.5312C216.739 88.721 216.634 88.918 216.583 89.1221C216.537 89.3226 216.514 89.6108 216.514 89.9868V93H215.547V87.2476ZM222.245 91.1953C222.273 91.5176 222.354 91.7646 222.486 91.9365C222.73 92.248 223.152 92.4038 223.754 92.4038C224.112 92.4038 224.427 92.3268 224.699 92.1729C224.971 92.0153 225.107 91.7736 225.107 91.4478C225.107 91.2007 224.998 91.0127 224.78 90.8838C224.64 90.805 224.364 90.7137 223.953 90.6099L223.185 90.4165C222.694 90.2948 222.332 90.1587 222.1 90.0083C221.684 89.7469 221.477 89.3853 221.477 88.9233C221.477 88.3791 221.672 87.9386 222.062 87.6021C222.456 87.2655 222.984 87.0972 223.646 87.0972C224.513 87.0972 225.138 87.3514 225.521 87.8599C225.761 88.1821 225.877 88.5295 225.87 88.9019H224.957C224.939 88.6834 224.862 88.4847 224.726 88.3057C224.504 88.0514 224.119 87.9243 223.571 87.9243C223.206 87.9243 222.929 87.9941 222.739 88.1338C222.553 88.2734 222.459 88.4578 222.459 88.687C222.459 88.9377 222.583 89.1382 222.83 89.2886C222.973 89.3781 223.185 89.4569 223.464 89.5249L224.103 89.6807C224.798 89.849 225.263 90.0119 225.5 90.1694C225.875 90.4165 226.063 90.805 226.063 91.335C226.063 91.847 225.868 92.2892 225.478 92.6616C225.091 93.034 224.5 93.2202 223.706 93.2202C222.85 93.2202 222.243 93.0269 221.885 92.6401C221.53 92.2498 221.34 91.7682 221.315 91.1953H222.245ZM229.565 87.1187C229.974 87.1187 230.369 87.2153 230.752 87.4087C231.136 87.5985 231.427 87.8455 231.628 88.1499C231.821 88.4399 231.95 88.7783 232.015 89.165C232.072 89.43 232.101 89.8525 232.101 90.4326H227.884C227.902 91.0163 228.04 91.4854 228.298 91.8398C228.556 92.1908 228.955 92.3662 229.496 92.3662C230 92.3662 230.403 92.1997 230.704 91.8667C230.876 91.6733 230.998 91.4495 231.069 91.1953H232.02C231.995 91.4066 231.911 91.6429 231.768 91.9043C231.628 92.1621 231.47 92.3734 231.295 92.5381C231.001 92.8245 230.638 93.0179 230.205 93.1182C229.972 93.1755 229.709 93.2041 229.415 93.2041C228.699 93.2041 228.092 92.9445 227.594 92.4253C227.097 91.9025 226.848 91.172 226.848 90.2339C226.848 89.3101 227.098 88.5599 227.6 87.9834C228.101 87.4069 228.756 87.1187 229.565 87.1187ZM231.107 89.6646C231.068 89.2456 230.976 88.9108 230.833 88.6602C230.568 88.1947 230.126 87.9619 229.506 87.9619C229.062 87.9619 228.69 88.123 228.389 88.4453C228.088 88.764 227.929 89.1704 227.911 89.6646H231.107Z" fill="black"/>
<path d="M320.5 45.5H340.53C347.197 45.5 353.863 45.5 360.53 45.5H384.13" stroke="black" stroke-miterlimit="10"/>
<path d="M389.38 45.5L382.38 49L384.13 45.5L382.38 42L389.38 45.5Z" fill="black" stroke="black" stroke-miterlimit="10"/>
<path d="M320.5 5.5H260.5V105.5H320.5V5.5Z" stroke="black"/>
<path d="M390.5 55.5H380.51C373.857 55.5 367.197 55.5 360.53 55.5H326.87" stroke="black" stroke-miterlimit="10"/>
<path d="M321.62 55.5L328.62 52L326.87 55.5L328.62 59L321.62 55.5Z" fill="black" stroke="black" stroke-miterlimit="10"/>
<path d="M390.5 73.83V27.17C390.5 20.72 399.21 15.5 409.94 15.5C420.68 15.5 429.39 20.72 429.39 27.17V73.83C429.39 80.28 420.68 85.5 409.95 85.5C399.21 85.5 390.5 80.28 390.5 73.83Z" stroke="black" stroke-width="2" stroke-miterlimit="10"/>
<path d="M390.5 27.17C390.5 33.61 399.21 38.83 409.95 38.83C420.68 38.83 429.39 33.61 429.39 27.17" stroke="black" stroke-width="2" stroke-miterlimit="10"/>
<path d="M130.5 20.5H10.5V90.5H130.5V20.5Z" stroke="black"/>
<path d="M93.63 90.5H47.38V100.5H93.63V90.5Z" stroke="black"/>
<g filter="url(#filter0_d_0_3)">
<path d="M130.5 35.5H190.53C197.197 35.5 203.863 35.5 210.53 35.5H254.13" stroke="black" stroke-miterlimit="10"/>
</g>
<path d="M259.38 35.5L252.38 39L254.13 35.5L252.38 32L259.38 35.5Z" fill="black" stroke="black" stroke-miterlimit="10"/>
<path d="M150.062 20.1099H151.141V23.3701H155.245V20.1099H156.324V28H155.245V24.3101H151.141V28H150.062V20.1099ZM163.726 20.1099V21.0498H161.067V28H159.982V21.0498H157.323V20.1099H163.726ZM170.45 20.1099V21.0498H167.792V28H166.707V21.0498H164.048V20.1099H170.45ZM171.535 20.1099H175.085C175.787 20.1099 176.353 20.3086 176.783 20.7061C177.212 21.0999 177.427 21.6549 177.427 22.3711C177.427 22.987 177.236 23.5241 176.853 23.9824C176.469 24.4372 175.88 24.6646 175.085 24.6646H172.604V28H171.535V20.1099ZM176.348 22.3765C176.348 21.7964 176.133 21.4025 175.703 21.1948C175.467 21.0838 175.143 21.0283 174.731 21.0283H172.604V23.7622H174.731C175.211 23.7622 175.599 23.6602 175.896 23.4561C176.197 23.252 176.348 22.8921 176.348 22.3765ZM185.307 23.7246C185.808 23.7246 186.204 23.6243 186.494 23.4238C186.787 23.2233 186.934 22.8617 186.934 22.3389C186.934 21.7767 186.73 21.3936 186.322 21.1895C186.103 21.082 185.812 21.0283 185.446 21.0283H182.836V23.7246H185.307ZM181.767 20.1099H185.419C186.021 20.1099 186.517 20.1976 186.907 20.373C187.648 20.7096 188.019 21.3309 188.019 22.2368C188.019 22.7095 187.921 23.0962 187.724 23.397C187.53 23.6978 187.258 23.9395 186.907 24.1221C187.215 24.2474 187.446 24.4121 187.6 24.6162C187.758 24.8203 187.845 25.1515 187.863 25.6099L187.901 26.668C187.912 26.9688 187.937 27.1925 187.976 27.3394C188.041 27.59 188.155 27.7511 188.32 27.8228V28H187.009C186.973 27.932 186.945 27.8442 186.923 27.7368C186.902 27.6294 186.884 27.4217 186.87 27.1138L186.805 25.7979C186.78 25.2822 186.589 24.9367 186.23 24.7612C186.026 24.6646 185.706 24.6162 185.269 24.6162H182.836V28H181.767V20.1099ZM191.854 22.1187C192.262 22.1187 192.658 22.2153 193.041 22.4087C193.424 22.5985 193.716 22.8455 193.917 23.1499C194.11 23.4399 194.239 23.7783 194.303 24.165C194.361 24.43 194.389 24.8525 194.389 25.4326H190.173C190.191 26.0163 190.329 26.4854 190.586 26.8398C190.844 27.1908 191.243 27.3662 191.784 27.3662C192.289 27.3662 192.692 27.1997 192.993 26.8667C193.165 26.6733 193.286 26.4495 193.358 26.1953H194.309C194.284 26.4066 194.199 26.6429 194.056 26.9043C193.917 27.1621 193.759 27.3734 193.583 27.5381C193.29 27.8245 192.926 28.0179 192.493 28.1182C192.26 28.1755 191.997 28.2041 191.704 28.2041C190.987 28.2041 190.381 27.9445 189.883 27.4253C189.385 26.9025 189.136 26.172 189.136 25.2339C189.136 24.3101 189.387 23.5599 189.888 22.9834C190.389 22.4069 191.045 22.1187 191.854 22.1187ZM193.396 24.6646C193.356 24.2456 193.265 23.9108 193.122 23.6602C192.857 23.1947 192.414 22.9619 191.795 22.9619C191.351 22.9619 190.979 23.123 190.678 23.4453C190.377 23.764 190.218 24.1704 190.2 24.6646H193.396ZM196.205 25.2017C196.205 25.6994 196.274 26.1165 196.414 26.4531C196.661 27.0511 197.103 27.3501 197.741 27.3501C198.414 27.3501 198.878 27.035 199.132 26.4048C199.271 26.0575 199.341 25.6134 199.341 25.0728C199.341 24.575 199.264 24.1597 199.11 23.8267C198.849 23.2573 198.389 22.9727 197.73 22.9727C197.311 22.9727 196.951 23.1553 196.65 23.5205C196.353 23.8822 196.205 24.4425 196.205 25.2017ZM197.633 22.1187C198.11 22.1187 198.511 22.2386 198.836 22.4785C199.015 22.6074 199.187 22.7972 199.352 23.0479V22.2476H200.271V30.2935H199.298V27.3394C199.137 27.5972 198.913 27.8031 198.627 27.957C198.344 28.1074 197.99 28.1826 197.563 28.1826C196.951 28.1826 196.403 27.9427 195.92 27.4629C195.437 26.9831 195.195 26.2526 195.195 25.2715C195.195 24.3512 195.42 23.5957 195.872 23.0049C196.326 22.4141 196.914 22.1187 197.633 22.1187ZM202.671 22.2476V26.0664C202.671 26.36 202.718 26.5999 202.811 26.7861C202.983 27.1299 203.303 27.3018 203.772 27.3018C204.446 27.3018 204.904 27.001 205.147 26.3994C205.28 26.0771 205.346 25.6349 205.346 25.0728V22.2476H206.313V28H205.4L205.411 27.1514C205.285 27.3698 205.13 27.5542 204.943 27.7046C204.575 28.0054 204.127 28.1558 203.601 28.1558C202.781 28.1558 202.222 27.8818 201.925 27.334C201.764 27.0404 201.683 26.6483 201.683 26.1577V22.2476H202.671ZM210.223 22.1187C210.631 22.1187 211.027 22.2153 211.41 22.4087C211.793 22.5985 212.085 22.8455 212.286 23.1499C212.479 23.4399 212.608 23.7783 212.672 24.165C212.73 24.43 212.758 24.8525 212.758 25.4326H208.542C208.56 26.0163 208.698 26.4854 208.956 26.8398C209.213 27.1908 209.613 27.3662 210.153 27.3662C210.658 27.3662 211.061 27.1997 211.362 26.8667C211.534 26.6733 211.655 26.4495 211.727 26.1953H212.678C212.653 26.4066 212.569 26.6429 212.425 26.9043C212.286 27.1621 212.128 27.3734 211.953 27.5381C211.659 27.8245 211.296 28.0179 210.862 28.1182C210.63 28.1755 210.366 28.2041 210.073 28.2041C209.357 28.2041 208.75 27.9445 208.252 27.4253C207.754 26.9025 207.505 26.172 207.505 25.2339C207.505 24.3101 207.756 23.5599 208.257 22.9834C208.759 22.4069 209.414 22.1187 210.223 22.1187ZM211.765 24.6646C211.725 24.2456 211.634 23.9108 211.491 23.6602C211.226 23.1947 210.784 22.9619 210.164 22.9619C209.72 22.9619 209.348 23.123 209.047 23.4453C208.746 23.764 208.587 24.1704 208.569 24.6646H211.765ZM214.525 26.1953C214.554 26.5176 214.635 26.7646 214.767 26.9365C215.011 27.248 215.433 27.4038 216.035 27.4038C216.393 27.4038 216.708 27.3268 216.98 27.1729C217.252 27.0153 217.388 26.7736 217.388 26.4478C217.388 26.2007 217.279 26.0127 217.061 25.8838C216.921 25.805 216.645 25.7137 216.233 25.6099L215.465 25.4165C214.975 25.2948 214.613 25.1587 214.38 25.0083C213.965 24.7469 213.757 24.3853 213.757 23.9233C213.757 23.3791 213.952 22.9386 214.343 22.6021C214.737 22.2655 215.265 22.0972 215.927 22.0972C216.794 22.0972 217.419 22.3514 217.802 22.8599C218.042 23.1821 218.158 23.5295 218.151 23.9019H217.238C217.22 23.6834 217.143 23.4847 217.007 23.3057C216.785 23.0514 216.4 22.9243 215.852 22.9243C215.487 22.9243 215.209 22.9941 215.02 23.1338C214.833 23.2734 214.74 23.4578 214.74 23.687C214.74 23.9377 214.864 24.1382 215.111 24.2886C215.254 24.3781 215.465 24.4569 215.745 24.5249L216.384 24.6807C217.078 24.849 217.544 25.0119 217.78 25.1694C218.156 25.4165 218.344 25.805 218.344 26.335C218.344 26.847 218.149 27.2892 217.759 27.6616C217.372 28.034 216.781 28.2202 215.986 28.2202C215.131 28.2202 214.524 28.0269 214.166 27.6401C213.811 27.2498 213.621 26.7682 213.596 26.1953H214.525ZM219.644 20.6416H220.622V22.2476H221.54V23.0371H220.622V26.7915C220.622 26.992 220.69 27.1263 220.826 27.1943C220.901 27.2337 221.026 27.2534 221.202 27.2534C221.248 27.2534 221.298 27.2534 221.352 27.2534C221.406 27.2498 221.468 27.2445 221.54 27.2373V28C221.429 28.0322 221.313 28.0555 221.191 28.0698C221.073 28.0841 220.944 28.0913 220.804 28.0913C220.353 28.0913 220.047 27.9767 219.886 27.7476C219.725 27.5148 219.644 27.214 219.644 26.8452V23.0371H218.865V22.2476H219.644V20.6416Z" fill="black"/>
<path d="M310.5 15.5H270.5V25.5H310.5V15.5Z" stroke="black"/>
<path d="M310.5 35.5H270.5V45.5H310.5V35.5Z" stroke="black"/>
<path d="M48.0568 59V50.2727H49.0625V53.4943H49.1477C49.2216 53.3807 49.3239 53.2358 49.4545 53.0597C49.5881 52.8807 49.7784 52.7216 50.0256 52.5824C50.2756 52.4403 50.6136 52.3693 51.0398 52.3693C51.5909 52.3693 52.0767 52.5071 52.4972 52.7827C52.9176 53.0582 53.2457 53.4489 53.4815 53.9545C53.7173 54.4602 53.8352 55.0568 53.8352 55.7443C53.8352 56.4375 53.7173 57.0384 53.4815 57.5469C53.2457 58.0526 52.919 58.4446 52.5014 58.723C52.0838 58.9986 51.6023 59.1364 51.0568 59.1364C50.6364 59.1364 50.2997 59.0668 50.0469 58.9276C49.794 58.7855 49.5994 58.625 49.4631 58.446C49.3267 58.2642 49.2216 58.1136 49.1477 57.9943H49.0284V59H48.0568ZM49.0455 55.7273C49.0455 56.2216 49.1179 56.6577 49.2628 57.0355C49.4077 57.4105 49.6193 57.7045 49.8977 57.9176C50.1761 58.1278 50.517 58.233 50.9205 58.233C51.3409 58.233 51.6918 58.1222 51.973 57.9006C52.2571 57.6761 52.4702 57.375 52.6122 56.9972C52.7571 56.6165 52.8295 56.1932 52.8295 55.7273C52.8295 55.267 52.7585 54.8523 52.6165 54.483C52.4773 54.1108 52.2656 53.8168 51.9815 53.6009C51.7003 53.3821 51.3466 53.2727 50.9205 53.2727C50.5114 53.2727 50.1676 53.3764 49.8892 53.5838C49.6108 53.7884 49.4006 54.0753 49.2585 54.4446C49.1165 54.8111 49.0455 55.2386 49.0455 55.7273ZM55.3736 59V52.4545H56.3452V53.4432H56.4134C56.5327 53.1193 56.7486 52.8565 57.0611 52.6548C57.3736 52.4531 57.7259 52.3523 58.1179 52.3523C58.1918 52.3523 58.2841 52.3537 58.3949 52.3565C58.5057 52.3594 58.5895 52.3636 58.6463 52.3693V53.392C58.6122 53.3835 58.5341 53.3707 58.4119 53.3537C58.2926 53.3338 58.1662 53.3239 58.0327 53.3239C57.7145 53.3239 57.4304 53.3906 57.1804 53.5241C56.9332 53.6548 56.7372 53.8366 56.5923 54.0696C56.4503 54.2997 56.3793 54.5625 56.3793 54.858V59H55.3736ZM62.2983 59.1364C61.7074 59.1364 61.1889 58.9957 60.7429 58.7145C60.2997 58.4332 59.9531 58.0398 59.7031 57.5341C59.456 57.0284 59.3324 56.4375 59.3324 55.7614C59.3324 55.0795 59.456 54.4844 59.7031 53.9759C59.9531 53.4673 60.2997 53.0724 60.7429 52.7912C61.1889 52.5099 61.7074 52.3693 62.2983 52.3693C62.8892 52.3693 63.4063 52.5099 63.8494 52.7912C64.2955 53.0724 64.642 53.4673 64.8892 53.9759C65.1392 54.4844 65.2642 55.0795 65.2642 55.7614C65.2642 56.4375 65.1392 57.0284 64.8892 57.5341C64.642 58.0398 64.2955 58.4332 63.8494 58.7145C63.4063 58.9957 62.8892 59.1364 62.2983 59.1364ZM62.2983 58.233C62.7472 58.233 63.1165 58.1179 63.4062 57.8878C63.696 57.6577 63.9105 57.3551 64.0497 56.9801C64.1889 56.6051 64.2585 56.1989 64.2585 55.7614C64.2585 55.3239 64.1889 54.9162 64.0497 54.5384C63.9105 54.1605 63.696 53.8551 63.4062 53.6222C63.1165 53.3892 62.7472 53.2727 62.2983 53.2727C61.8494 53.2727 61.4801 53.3892 61.1903 53.6222C60.9006 53.8551 60.6861 54.1605 60.5469 54.5384C60.4077 54.9162 60.3381 55.3239 60.3381 55.7614C60.3381 56.1989 60.4077 56.6051 60.5469 56.9801C60.6861 57.3551 60.9006 57.6577 61.1903 57.8878C61.4801 58.1179 61.8494 58.233 62.2983 58.233ZM68.0597 59L66.0653 52.4545H67.1222L68.5369 57.4659H68.6051L70.0028 52.4545H71.0767L72.4574 57.4489H72.5256L73.9403 52.4545H74.9972L73.0028 59H72.0142L70.5824 53.9716H70.4801L69.0483 59H68.0597ZM80.9631 53.9205L80.0597 54.1761C80.0028 54.0256 79.919 53.8793 79.8082 53.7372C79.7003 53.5923 79.5526 53.473 79.3651 53.3793C79.1776 53.2855 78.9375 53.2386 78.6449 53.2386C78.2443 53.2386 77.9105 53.331 77.6435 53.5156C77.3793 53.6974 77.2472 53.929 77.2472 54.2102C77.2472 54.4602 77.3381 54.6577 77.5199 54.8026C77.7017 54.9474 77.9858 55.0682 78.3722 55.1648L79.3438 55.4034C79.929 55.5455 80.3651 55.7628 80.652 56.0554C80.9389 56.3452 81.0824 56.7187 81.0824 57.1761C81.0824 57.5511 80.9744 57.8864 80.7585 58.1818C80.5455 58.4773 80.2472 58.7102 79.8636 58.8807C79.4801 59.0511 79.0341 59.1364 78.5256 59.1364C77.858 59.1364 77.3054 58.9915 76.8679 58.7017C76.4304 58.4119 76.1534 57.9886 76.0369 57.4318L76.9915 57.1932C77.0824 57.5455 77.2543 57.8097 77.5071 57.9858C77.7628 58.1619 78.0966 58.25 78.5085 58.25C78.9773 58.25 79.3494 58.1506 79.625 57.9517C79.9034 57.75 80.0426 57.5085 80.0426 57.2273C80.0426 57 79.9631 56.8097 79.804 56.6562C79.6449 56.5 79.4006 56.3835 79.071 56.3068L77.9801 56.0511C77.3807 55.9091 76.9403 55.6889 76.6591 55.3906C76.3807 55.0895 76.2415 54.7131 76.2415 54.2614C76.2415 53.892 76.3452 53.5653 76.5526 53.2812C76.7628 52.9972 77.0483 52.7741 77.4091 52.6122C77.7727 52.4503 78.1847 52.3693 78.6449 52.3693C79.2926 52.3693 79.8011 52.5114 80.1705 52.7955C80.5426 53.0795 80.8068 53.4545 80.9631 53.9205ZM85.3406 59.1364C84.7099 59.1364 84.1658 58.9972 83.7085 58.7188C83.2539 58.4375 82.9031 58.0455 82.6559 57.5426C82.4116 57.0369 82.2894 56.4489 82.2894 55.7784C82.2894 55.108 82.4116 54.517 82.6559 54.0057C82.9031 53.4915 83.2468 53.0909 83.6871 52.804C84.1303 52.5142 84.6474 52.3693 85.2383 52.3693C85.5792 52.3693 85.9158 52.4261 86.2482 52.5398C86.5806 52.6534 86.8832 52.8381 87.1559 53.0938C87.4286 53.3466 87.646 53.6818 87.8079 54.0994C87.9698 54.517 88.0508 55.0312 88.0508 55.642V56.0682H83.0053V55.1989H87.0281C87.0281 54.8295 86.9542 54.5 86.8065 54.2102C86.6616 53.9205 86.4542 53.6918 86.1843 53.5241C85.9173 53.3565 85.6019 53.2727 85.2383 53.2727C84.8377 53.2727 84.4911 53.3722 84.1985 53.571C83.9087 53.767 83.6857 54.0227 83.5295 54.3381C83.3732 54.6534 83.2951 54.9915 83.2951 55.3523V55.9318C83.2951 56.4261 83.3803 56.8452 83.5508 57.1889C83.7241 57.5298 83.9641 57.7898 84.271 57.9688C84.5778 58.1449 84.9343 58.233 85.3406 58.233C85.6048 58.233 85.8434 58.196 86.0565 58.1222C86.2724 58.0455 86.4585 57.9318 86.6147 57.7812C86.771 57.6278 86.8917 57.4375 86.9769 57.2102L87.9485 57.483C87.8462 57.8125 87.6744 58.1023 87.4329 58.3523C87.1914 58.5994 86.8931 58.7926 86.538 58.9318C86.1829 59.0682 85.7837 59.1364 85.3406 59.1364ZM89.5806 59V52.4545H90.5522V53.4432H90.6204C90.7397 53.1193 90.9556 52.8565 91.2681 52.6548C91.5806 52.4531 91.9329 52.3523 92.3249 52.3523C92.3988 52.3523 92.4911 52.3537 92.6019 52.3565C92.7127 52.3594 92.7965 52.3636 92.8533 52.3693V53.392C92.8192 53.3835 92.7411 53.3707 92.619 53.3537C92.4996 53.3338 92.3732 53.3239 92.2397 53.3239C91.9215 53.3239 91.6374 53.3906 91.3874 53.5241C91.1403 53.6548 90.9442 53.8366 90.7994 54.0696C90.6573 54.2997 90.5863 54.5625 90.5863 54.858V59H89.5806Z" fill="black"/>
<defs>
<filter id="filter0_d_0_3" x="126.5" y="35" width="131.63" height="9" filterUnits="userSpaceOnUse" color-interpolation-filters="sRGB">
<feFlood flood-opacity="0" result="BackgroundImageFix"/>
<feColorMatrix in="SourceAlpha" type="matrix" values="0 0 0 0 0 0 0 0 0 0 0 0 0 0 0 0 0 0 127 0" result="hardAlpha"/>
<feOffset dy="4"/>
<feGaussianBlur stdDeviation="2"/>
<feComposite in2="hardAlpha" operator="out"/>
<feColorMatrix type="matrix" values="0 0 0 0 0 0 0 0 0 0 0 0 0 0 0 0 0 0 0.25 0"/>
<feBlend mode="normal" in2="BackgroundImageFix" result="effect1_dropShadow_0_3"/>
<feBlend mode="normal" in="SourceGraphic" in2="effect1_dropShadow_0_3" result="shape"/>
</filter>
</defs>
</svg>
