<svg width="2193" height="749" viewBox="0 0 2193 749" fill="none" xmlns="http://www.w3.org/2000/svg">
<g clip-path="url(#clip0_310_1511)">
<path d="M334.518 408.875C334.308 403.68 332.069 398.776 328.282 395.215C324.495 391.655 319.462 389.723 314.266 389.835C309.941 390.138 305.778 391.601 302.214 394.07C298.65 396.539 295.818 399.923 294.013 403.866L167.782 695.466L42.0828 404.93C40.4798 400.557 37.583 396.776 33.778 394.092C29.9729 391.408 25.4402 389.947 20.7841 389.904C15.4813 389.887 10.3734 391.902 6.5107 395.536C2.64798 399.17 0.324163 404.146 0.0171654 409.441C-0.0994854 412.579 0.616463 415.692 2.09219 418.464L142.334 730.543C144.039 735.483 147.275 739.75 151.571 742.723C155.867 745.697 160.999 747.224 166.222 747.08H168.296C173.502 747.148 178.6 745.592 182.881 742.628C187.162 739.665 190.414 735.441 192.184 730.543L332.941 416.972C334.001 414.436 334.532 411.709 334.501 408.961" fill="#00ACF1"/>
<path d="M552.751 709.925C554.647 708.425 556.187 706.525 557.263 704.361C558.339 702.196 558.924 699.821 558.976 697.404C558.815 692.872 556.867 688.588 553.557 685.49C550.247 682.391 545.845 680.73 541.313 680.868C537.093 680.976 533.047 682.574 529.892 685.38C508.898 704.957 481.185 715.716 452.483 715.432C428.414 716.018 405.067 707.182 387.413 690.808C369.758 674.434 359.191 651.814 357.96 627.763H552.219C554.634 627.817 557.035 627.393 559.285 626.515C561.535 625.637 563.589 624.322 565.328 622.646C567.067 620.971 568.458 618.967 569.419 616.751C570.38 614.535 570.893 612.15 570.929 609.735C570.929 541.123 525.742 478.498 446.258 478.498C428.873 478.609 411.687 482.215 395.722 489.1C379.756 495.985 365.337 506.009 353.32 518.577C341.304 531.145 331.936 546.001 325.772 562.262C319.608 578.522 316.774 595.857 317.438 613.235V614.246C316.928 632.021 320.041 649.714 326.586 666.247C333.131 682.78 342.973 697.808 355.511 710.415C368.049 723.022 383.021 732.944 399.515 739.577C416.01 746.211 433.682 749.417 451.455 749C470.095 749.608 488.668 746.462 506.069 739.75C523.471 733.038 539.345 722.895 552.751 709.925ZM445.23 511.054C498.733 511.054 526.788 552.136 530.973 599.22H357.96C363.105 548.619 398.482 511.054 445.23 511.054Z" fill="#00ACF1"/>
<path d="M1019.4 481.501C1014.21 481.518 1009.23 483.576 1005.53 487.23C1001.84 490.885 999.734 495.843 999.662 501.037V725.947C999.669 728.571 1000.2 731.168 1001.23 733.582C1002.26 735.996 1003.77 738.18 1005.66 740.002C1007.54 741.824 1009.78 743.248 1012.23 744.189C1014.68 745.131 1017.29 745.572 1019.91 745.485C1022.51 745.562 1025.09 745.11 1027.51 744.158C1029.93 743.206 1032.12 741.773 1033.97 739.946C1035.82 738.119 1037.27 735.937 1038.25 733.531C1039.22 731.124 1039.7 728.544 1039.65 725.947V501.037C1039.64 498.413 1039.11 495.816 1038.08 493.402C1037.05 490.988 1035.55 488.805 1033.66 486.983C1031.77 485.161 1029.53 483.737 1027.08 482.796C1024.64 481.854 1022.02 481.413 1019.4 481.501Z" fill="#00ACF1"/>
<path d="M1419.36 478.498C1400.46 478.052 1381.78 482.584 1365.18 491.64C1348.59 500.696 1334.67 513.958 1324.82 530.094C1317.04 514.015 1304.73 500.563 1289.41 491.395C1274.09 482.227 1256.42 477.744 1238.58 478.498C1221.06 478.243 1203.8 482.656 1188.55 491.283C1173.31 499.911 1160.64 512.442 1151.84 527.59V501.038C1151.84 495.733 1149.73 490.645 1145.98 486.895C1142.23 483.144 1137.15 481.037 1131.84 481.037C1126.54 481.037 1121.45 483.144 1117.7 486.895C1113.95 490.645 1111.85 495.733 1111.85 501.038V725.98C1111.86 728.606 1112.39 731.203 1113.43 733.618C1114.46 736.032 1115.96 738.215 1117.85 740.036C1119.74 741.858 1121.98 743.281 1124.43 744.223C1126.88 745.165 1129.49 745.605 1132.12 745.518C1134.71 745.595 1137.3 745.144 1139.71 744.192C1142.13 743.24 1144.33 741.808 1146.17 739.981C1148.02 738.154 1149.47 735.971 1150.45 733.564C1151.43 731.158 1151.91 728.577 1151.86 725.98V595.242C1151.11 584.9 1152.48 574.514 1155.88 564.721C1159.29 554.928 1164.66 545.934 1171.66 538.289C1178.67 530.645 1187.16 524.512 1196.61 520.266C1206.07 516.019 1216.29 513.749 1226.66 513.593C1269.25 513.593 1295.75 542.153 1295.75 590.782V725.98C1295.9 731.186 1298.08 736.127 1301.81 739.755C1305.55 743.383 1310.55 745.412 1315.75 745.412C1320.96 745.412 1325.96 743.383 1329.7 739.755C1333.43 736.127 1335.6 731.186 1335.76 725.98V593.732C1335.76 542.633 1369.01 513.576 1409.5 513.576C1453.12 513.576 1479.1 541.638 1479.1 591.725V725.98C1479.26 731.186 1481.43 736.127 1485.16 739.755C1488.9 743.383 1493.9 745.412 1499.11 745.412C1504.31 745.412 1509.31 743.383 1513.05 739.755C1516.78 736.127 1518.96 731.186 1519.11 725.98V582.719C1519.11 518.602 1481.2 478.533 1419.39 478.533" fill="#00ACF1"/>
<path d="M1665.08 748.502C1683.63 749.142 1702.06 745.445 1718.93 737.703C1735.79 729.961 1750.62 718.387 1762.23 703.905V727.456C1762.23 729.924 1762.75 732.365 1763.73 734.628C1764.71 736.892 1766.15 738.93 1767.95 740.619C1769.75 742.307 1771.88 743.61 1774.2 744.446C1776.52 745.283 1778.99 745.636 1781.45 745.484C1783.98 745.563 1786.5 745.127 1788.86 744.201C1791.21 743.275 1793.35 741.878 1795.15 740.096C1796.95 738.315 1798.37 736.186 1799.32 733.839C1800.27 731.491 1800.73 728.976 1800.67 726.444V584.692C1801.57 570.863 1799.58 556.999 1794.84 543.978C1790.1 530.956 1782.71 519.062 1773.13 509.048C1749.09 488.515 1717.93 478.257 1686.4 480.487C1656.24 480.208 1626.35 486.178 1598.61 498.018C1595.43 499.337 1592.71 501.556 1590.77 504.401C1588.83 507.247 1587.77 510.597 1587.7 514.04C1587.94 518.544 1589.92 522.781 1593.21 525.864C1596.5 528.946 1600.86 530.634 1605.37 530.575C1607.86 530.507 1610.32 529.996 1612.64 529.065C1634.59 519.453 1658.29 514.506 1682.25 514.537C1732.64 514.537 1762.24 538.551 1762.24 585.172V594.195C1735.37 586.635 1707.57 582.927 1679.66 583.182C1611.61 583.182 1564.86 612.239 1564.86 666.837V667.833C1564.86 721.007 1615.25 748.451 1665.11 748.451M1605.39 665.294C1605.39 632.703 1633.42 611.691 1683.82 611.691C1710.5 611.717 1737.05 615.428 1762.71 622.72V647.763C1762.71 688.844 1722.18 717.901 1672.85 717.901C1636.49 717.901 1605.32 698.862 1605.32 666.305L1605.39 665.294Z" fill="#00ACF1"/>
<path d="M936.297 740.491C939.532 739.495 942.374 737.511 944.423 734.816C946.472 732.12 947.624 728.85 947.718 725.466C947.597 721.011 945.732 716.782 942.525 713.69C939.317 710.597 935.024 708.888 930.57 708.93C922.573 710.931 914.388 712.081 906.15 712.361C879.141 712.361 860.963 700.834 860.963 669.273V518.001H930.57C935.235 518.14 939.765 516.426 943.171 513.235C946.576 510.043 948.582 505.633 948.747 500.968C948.496 496.333 946.465 491.974 943.078 488.8C939.691 485.627 935.21 483.884 930.57 483.935H860.963V422.991C860.772 417.746 858.555 412.779 854.778 409.135C851.001 405.491 845.958 403.454 840.711 403.453C838.126 403.419 835.561 403.9 833.165 404.867C830.768 405.834 828.588 407.269 826.751 409.087C824.914 410.905 823.457 413.072 822.465 415.459C821.473 417.846 820.965 420.406 820.972 422.991V484.107H800.205C787.121 483.918 715.852 484.878 667.39 529.596C665.092 531.723 662.897 533.936 660.77 536.2V501.139C660.77 495.835 658.664 490.748 654.914 486.997C651.164 483.247 646.078 481.139 640.775 481.139C635.472 481.139 630.386 483.247 626.636 486.997C622.887 490.748 620.78 495.835 620.78 501.139V726.065C620.78 731.37 622.887 736.458 626.636 740.208C630.386 743.959 635.472 746.066 640.775 746.066C646.078 746.066 651.164 743.959 654.914 740.208C658.664 736.458 660.77 731.37 660.77 726.065V612.857C664.295 590.467 675.152 569.881 691.638 554.331C728.73 520.025 786.538 518.138 798.525 518.138C798.748 518.138 798.954 518.138 799.177 518.138H820.99V674.418C820.99 727.009 853.709 747.559 896.821 747.559C910.298 747.79 923.692 745.407 936.263 740.543" fill="#00ACF1"/>
<path d="M2174.82 708.93C2166.83 710.932 2158.64 712.082 2150.4 712.361C2123.39 712.361 2105.22 700.834 2105.22 669.272V518.001H2174.82C2179.49 518.14 2184.02 516.427 2187.42 513.236C2190.83 510.044 2192.83 505.634 2193 500.969C2192.75 496.334 2190.72 491.975 2187.33 488.801C2183.94 485.628 2179.46 483.884 2174.82 483.935H2105.22V422.974C2105.02 417.729 2102.81 412.762 2099.03 409.118C2095.25 405.474 2090.21 403.437 2084.96 403.437C2082.38 403.4 2079.81 403.88 2077.41 404.846C2075.01 405.812 2072.83 407.245 2070.99 409.064C2069.15 410.882 2067.7 413.049 2066.7 415.437C2065.71 417.826 2065.2 420.388 2065.21 422.974V484.09H2044.46C2031.36 483.884 1960.09 484.862 1911.64 529.562C1909.33 531.689 1907.15 533.919 1905.02 536.167V501.106C1905.02 495.801 1902.92 490.714 1899.17 486.963C1895.42 483.212 1890.33 481.105 1885.03 481.105C1879.72 481.105 1874.64 483.212 1870.89 486.963C1867.14 490.714 1865.03 495.801 1865.03 501.106V726.015C1865.03 731.319 1867.14 736.406 1870.89 740.157C1874.64 743.908 1879.72 746.015 1885.03 746.015C1890.33 746.015 1895.42 743.908 1899.17 740.157C1902.92 736.406 1905.02 731.319 1905.02 726.015V612.805C1908.55 590.415 1919.4 569.83 1935.89 554.28C1972.98 519.974 2030.79 518.086 2042.78 518.069C2043 518.069 2043.21 518.069 2043.43 518.069H2065.24V674.368C2065.24 726.959 2097.98 747.49 2141.09 747.49C2154.57 747.718 2167.96 745.335 2180.53 740.474C2183.77 739.478 2186.61 737.494 2188.66 734.799C2190.71 732.104 2191.86 728.833 2191.95 725.449C2191.83 720.994 2189.97 716.765 2186.76 713.673C2183.55 710.58 2179.26 708.871 2174.81 708.913" fill="#00ACF1"/>
<path d="M1036.43 356.558C1234.85 379.748 1350.75 156.04 1363.73 13.3963C1364.06 10.8667 1363.57 8.29517 1362.32 6.07195C1361.06 3.84873 1359.12 2.09401 1356.78 1.07285C1354.45 0.0516964 1351.84 -0.180087 1349.36 0.412238C1346.87 1.00456 1344.65 2.38887 1343.03 4.35603C1274.28 88.6284 1051.5 321.549 813.685 138.252C811.666 136.702 809.202 135.844 806.658 135.808C804.113 135.771 801.625 136.557 799.563 138.049C797.501 139.541 795.976 141.659 795.215 144.088C794.453 146.517 794.496 149.126 795.336 151.528C815.743 214.325 875.934 337.809 1036.43 356.558Z" fill="#00ACF1"/>
</g>
<defs>
<clipPath id="clip0_310_1511">
<rect width="2193" height="749" fill="white"/>
</clipPath>
</defs>
</svg>
